<svg width="300" height="300" viewBox="0 0 300 300" fill="none" xmlns="http://www.w3.org/2000/svg">
<path d="M191.835 66.0449C177.378 73.8612 168.006 86.3544 158.168 98.0641C148.33 109.774 136.921 121.464 120.472 126.303C108.804 129.732 93.4643 123.334 81.233 125.445C61.5391 128.876 52.9469 133.652 44.9182 148.705C35.3645 166.617 63.4003 224.351 98.546 244.415C120.062 256.699 153.202 260.656 174.324 251.016C195.447 241.376 198.705 213.799 206.33 194.582C211.797 180.744 214.083 165.587 223.23 153.377C231.335 142.554 244.322 134.815 251.914 123.71C262.006 108.946 261.342 86.0455 247.483 70.9325C233.843 56.0927 207.527 57.5916 191.835 66.0449Z" fill="#017BE0"/>
<g opacity="0.9">
<path d="M191.835 66.0449C177.378 73.8612 168.006 86.3544 158.168 98.0641C148.33 109.774 136.921 121.464 120.472 126.303C108.804 129.732 93.4643 123.334 81.233 125.445C61.5391 128.876 52.9469 133.652 44.9182 148.705C35.3645 166.617 63.4003 224.351 98.546 244.415C120.062 256.699 153.202 260.656 174.324 251.016C195.447 241.376 198.705 213.799 206.33 194.582C211.797 180.744 214.083 165.587 223.23 153.377C231.335 142.554 244.322 134.815 251.914 123.71C262.006 108.946 261.342 86.0455 247.483 70.9325C233.843 56.0927 207.527 57.5916 191.835 66.0449Z" fill="white"/>
<path d="M123.004 254.1C114.376 252.177 106.075 249.015 98.3703 244.717C82.4059 235.612 66.0656 217.365 54.6471 195.912C43.9306 175.772 39.9796 157.175 44.5854 148.532C52.3737 133.929 60.5695 128.661 81.1721 125.082C86.9093 124.085 93.381 124.92 99.6775 125.79C106.82 126.75 114.201 127.736 120.369 125.924C136.587 121.165 148.017 109.613 157.879 97.8345C158.944 96.5121 160.074 95.2046 161.178 93.8764C169.823 83.4521 178.764 72.665 191.65 65.7277C208.235 56.7965 234.392 56.1526 247.736 70.6938C261.08 85.2351 262.995 108.119 252.222 123.922C248.227 129.778 242.659 134.767 237.282 139.591C232.411 143.96 227.383 148.457 223.536 153.604C217.321 161.898 214.236 171.767 211.251 181.302C209.856 185.743 208.417 190.308 206.684 194.73C204.951 199.153 203.466 203.855 201.906 208.882C196.778 225.279 190.964 243.866 174.525 251.367C164.463 255.953 151.004 257.714 136.605 256.317C132.029 255.872 127.486 255.132 123.004 254.1ZM191.835 66.0453L192.012 66.3683C179.247 73.2442 170.351 83.9673 161.753 94.3207C160.686 95.6502 159.562 96.9663 158.453 98.2788C148.488 110.145 137 121.787 120.591 126.613C114.267 128.471 106.806 127.475 99.589 126.505C93.3687 125.668 86.9397 124.812 81.3061 125.789C60.9952 129.324 52.9048 134.497 45.2473 148.863C40.7479 157.307 44.6908 175.643 55.3034 195.573C66.6579 216.907 82.8932 235.048 98.7357 244.088C121.128 256.863 154.261 259.756 174.167 250.675C190.317 243.308 195.826 225.684 201.172 208.602C202.741 203.569 204.232 198.809 205.961 194.4C207.691 189.992 209.12 185.47 210.507 181.027C213.515 171.43 216.62 161.506 222.904 153.109C226.788 147.933 231.851 143.386 236.741 138.999C242.091 134.198 247.621 129.238 251.575 123.461C262.187 107.926 260.327 85.4333 247.181 71.1232C234.035 56.8132 208.351 57.5142 191.994 66.3122L191.835 66.0453Z" fill="white"/>
</g>
<path d="M109.883 57.6679H113.291C112.492 57.6565 111.7 57.8126 110.966 58.1262C110.232 58.4398 109.571 58.9039 109.027 59.4885C108.483 60.0731 108.068 60.7652 107.808 61.5202C107.548 62.2752 107.45 63.0763 107.519 63.8719L114.749 167.252C114.886 168.926 115.641 170.489 116.868 171.636C118.095 172.783 119.705 173.432 121.385 173.456H117.983C116.303 173.432 114.692 172.783 113.464 171.636C112.236 170.489 111.479 168.926 111.341 167.252L104.093 63.8719C104.024 63.0748 104.123 62.2722 104.384 61.5159C104.645 60.7596 105.062 60.0666 105.607 59.4817C106.153 58.8969 106.816 58.4332 107.552 58.1207C108.289 57.8082 109.083 57.6539 109.883 57.6679Z" fill="#017BE0"/>
<path d="M109.882 57.6676H113.29C112.492 57.6562 111.7 57.8124 110.966 58.126C110.231 58.4396 109.571 58.9036 109.027 59.4882C108.483 60.0728 108.068 60.7649 107.808 61.52C107.548 62.275 107.45 63.0761 107.518 63.8716L114.748 167.252C114.885 168.926 115.641 170.488 116.868 171.635C118.095 172.782 119.705 173.431 121.384 173.456H117.982C114.556 173.456 111.1 170.678 110.86 167.252L103.63 63.8716C103.39 60.4456 106.456 57.6676 109.882 57.6676Z" fill="#263238"/>
<path d="M118.996 173.462H160.696C161.497 173.476 162.291 173.323 163.028 173.011C163.766 172.699 164.429 172.235 164.975 171.65C165.522 171.065 165.939 170.372 166.201 169.615C166.462 168.858 166.561 168.055 166.492 167.258L159.238 63.8717C159.102 62.1957 158.347 60.6305 157.118 59.4821C155.89 58.3337 154.278 57.6846 152.596 57.6617H110.902C110.103 57.6503 109.311 57.8066 108.576 58.1205C107.841 58.4345 107.181 58.8991 106.637 59.4844C106.093 60.0696 105.677 60.7625 105.418 61.5182C105.158 62.274 105.06 63.0757 105.13 63.8717L112.33 167.252C112.468 168.931 113.227 170.499 114.46 171.648C115.693 172.797 117.311 173.443 118.996 173.462Z" fill="#017BE0"/>
<g opacity="0.6">
<path d="M152.489 59.6722C153.657 59.6906 154.776 60.1432 155.629 60.9417C156.482 61.7403 157.007 62.8277 157.103 63.9922L164.333 167.372C164.382 167.9 164.319 168.432 164.148 168.933C163.977 169.435 163.703 169.895 163.342 170.283C162.981 170.671 162.542 170.978 162.054 171.185C161.566 171.392 161.04 171.493 160.511 171.482H118.817C117.648 171.464 116.527 171.011 115.674 170.213C114.82 169.415 114.293 168.327 114.197 167.162L106.997 63.7822C106.948 63.2571 107.01 62.7277 107.179 62.2282C107.348 61.7288 107.62 61.2704 107.978 60.8829C108.335 60.4953 108.77 60.1873 109.254 59.9787C109.739 59.7701 110.261 59.6657 110.789 59.6722H152.489Z" fill="white"/>
</g>
<g opacity="0.3">
<path d="M140.693 171.47H124.079L137.795 59.6719H151.181C151.759 59.6697 152.331 59.7869 152.862 60.0161C153.392 60.2453 153.87 60.5816 154.265 61.0039L140.693 171.47Z" fill="white"/>
<path d="M121.097 171.47H117.353L131.069 59.6602H134.813L121.097 171.47Z" fill="white"/>
</g>
<path d="M150.004 108.812H119.8C119.721 108.812 119.645 108.78 119.588 108.724C119.532 108.668 119.5 108.591 119.5 108.512C119.5 108.432 119.532 108.356 119.588 108.3C119.645 108.244 119.721 108.212 119.8 108.212H150.004C150.084 108.213 150.159 108.246 150.215 108.301C150.271 108.357 150.303 108.433 150.304 108.512C150.304 108.591 150.273 108.668 150.217 108.724C150.16 108.78 150.084 108.812 150.004 108.812Z" fill="#FF5900"/>
<path d="M147.353 113.282H123.695C123.615 113.282 123.539 113.25 123.482 113.194C123.426 113.138 123.395 113.061 123.395 112.982C123.395 112.902 123.426 112.826 123.482 112.77C123.539 112.713 123.615 112.682 123.695 112.682H147.353C147.432 112.682 147.508 112.713 147.565 112.77C147.621 112.826 147.653 112.902 147.653 112.982C147.653 113.061 147.621 113.138 147.565 113.194C147.508 113.25 147.432 113.282 147.353 113.282Z" fill="#FF5900"/>
<path d="M126.521 101.557V102.901H120.227V101.839L123.575 98.6053C124.391 97.8073 124.529 97.3093 124.523 96.8053C124.523 96.0253 123.959 95.5693 122.909 95.5693C122.53 95.5502 122.151 95.6212 121.805 95.7766C121.459 95.9321 121.154 96.1674 120.917 96.4633L119.789 95.6053C120.176 95.1309 120.671 94.7552 121.232 94.5091C121.793 94.263 122.405 94.1534 123.017 94.1893C124.877 94.1893 126.095 95.1313 126.119 96.6493C126.119 97.4773 125.915 98.2393 124.751 99.3553L122.501 101.533L126.521 101.557Z" fill="#263238"/>
<path d="M133.493 100.334C133.493 101.774 132.449 103.022 130.151 103.022C128.993 103.042 127.859 102.696 126.911 102.032L127.577 100.796C128.3 101.354 129.189 101.652 130.103 101.642C131.237 101.642 131.903 101.138 131.903 100.346C131.903 99.5538 131.303 99.0678 130.019 99.0678H129.239V97.9818L131.093 95.6718H127.199V94.3398H133.043V95.4078L131.003 97.8798C132.641 98.0718 133.493 99.0438 133.493 100.334Z" fill="#263238"/>
<path d="M141.496 100.472C141.496 102.062 140.158 103.052 138.028 103.052C135.898 103.052 134.518 102.062 134.494 100.472C134.476 100.034 134.595 99.6025 134.834 99.2359C135.072 98.8692 135.419 98.586 135.826 98.4256C135.494 98.2572 135.216 97.9996 135.022 97.6817C134.828 97.3637 134.726 96.998 134.728 96.6256C134.728 95.1556 135.976 94.2256 137.872 94.2256C139.768 94.2256 141.094 95.1436 141.118 96.6256C141.137 96.9959 141.047 97.3636 140.859 97.6833C140.672 98.0031 140.395 98.2611 140.062 98.4256C140.48 98.5826 140.84 98.8619 141.096 99.227C141.352 99.592 141.491 100.026 141.496 100.472ZM139.888 100.424C139.888 99.5776 139.132 99.0496 137.956 99.0496C136.78 99.0496 136.078 99.5776 136.096 100.424C136.114 101.27 136.828 101.804 138.004 101.804C139.18 101.804 139.906 101.264 139.888 100.394V100.424ZM136.288 96.7036C136.288 97.4356 136.888 97.9036 137.926 97.9036C138.964 97.9036 139.558 97.4356 139.54 96.7036C139.522 95.9716 138.862 95.5036 137.878 95.5036C136.894 95.5036 136.288 95.8996 136.3 96.6736L136.288 96.7036Z" fill="#263238"/>
<path d="M149.476 100.472C149.476 102.062 148.138 103.052 146.008 103.052C143.878 103.052 142.492 102.032 142.492 100.472C142.475 100.035 142.594 99.6031 142.833 99.2366C143.071 98.8701 143.418 98.5868 143.824 98.4256C143.492 98.258 143.213 98.0005 143.02 97.6822C142.827 97.3639 142.727 96.9978 142.732 96.6256C142.702 95.1556 143.974 94.2256 145.87 94.2256C147.766 94.2256 149.092 95.1436 149.116 96.6256C149.135 96.9959 149.045 97.3636 148.857 97.6833C148.67 98.0031 148.393 98.2611 148.06 98.4256C148.474 98.5855 148.83 98.866 149.083 99.2309C149.335 99.5957 149.472 100.028 149.476 100.472ZM147.868 100.424C147.868 99.5776 147.112 99.0496 145.936 99.0496C144.76 99.0496 144.058 99.5776 144.076 100.424C144.094 101.27 144.808 101.804 145.984 101.804C147.16 101.804 147.892 101.264 147.892 100.394L147.868 100.424ZM144.268 96.7036C144.268 97.4356 144.898 97.9036 145.906 97.9036C146.914 97.9036 147.538 97.4356 147.526 96.7036C147.514 95.9716 146.842 95.5036 145.864 95.5036C144.886 95.5036 144.292 95.8996 144.292 96.6736L144.268 96.7036Z" fill="#263238"/>
<path d="M104.987 87.4581C104.91 87.4582 104.836 87.4291 104.781 87.3767C104.725 87.3243 104.691 87.2525 104.687 87.1761L103.625 72.6741C103.62 72.5955 103.646 72.518 103.697 72.4585C103.749 72.399 103.822 72.3622 103.901 72.3561C103.98 72.351 104.058 72.377 104.118 72.4285C104.179 72.48 104.217 72.553 104.225 72.6321L105.293 87.1341C105.296 87.1735 105.291 87.2132 105.279 87.2508C105.267 87.2885 105.248 87.3234 105.222 87.3535C105.196 87.3836 105.165 87.4084 105.13 87.4263C105.095 87.4443 105.056 87.4551 105.017 87.4581H104.987Z" fill="#017BE0"/>
<path d="M103.72 70.1718C103.645 70.1721 103.572 70.1438 103.516 70.0926C103.461 70.0414 103.426 69.9712 103.42 69.8958L103.138 66.0678C103.136 66.0284 103.141 65.9889 103.153 65.9514C103.166 65.914 103.186 65.8794 103.211 65.8495C103.264 65.7893 103.338 65.7524 103.417 65.7468C103.497 65.7413 103.576 65.7675 103.636 65.8198C103.696 65.8722 103.733 65.9463 103.738 66.0258L104.02 69.8538C104.025 69.9325 103.999 70.0099 103.948 70.0694C103.896 70.1289 103.823 70.1657 103.744 70.1718H103.72Z" fill="#017BE0"/>
<path d="M161.398 248.792C161.511 248.748 161.61 248.677 161.688 248.585C161.765 248.492 161.818 248.382 161.842 248.264C161.865 248.193 161.868 248.117 161.851 248.044C161.835 247.971 161.798 247.904 161.746 247.85C161.284 247.37 159.406 247.712 159.196 247.754C159.172 247.756 159.149 247.766 159.13 247.782C159.112 247.798 159.099 247.82 159.094 247.844C159.09 247.867 159.092 247.892 159.1 247.914C159.109 247.936 159.123 247.956 159.142 247.97C159.517 248.243 159.919 248.477 160.342 248.666C160.669 248.83 161.042 248.875 161.398 248.792ZM161.566 248.018C161.588 248.043 161.603 248.073 161.61 248.106C161.616 248.139 161.614 248.173 161.602 248.204C161.589 248.283 161.555 248.356 161.504 248.418C161.454 248.48 161.389 248.528 161.314 248.558C160.972 248.684 160.318 248.45 159.514 247.958C160.294 247.826 161.32 247.76 161.566 248.018Z" fill="#FF5900"/>
<path d="M159.232 247.993C159.832 247.921 161.128 247.243 161.242 246.655C161.262 246.559 161.248 246.459 161.202 246.373C161.156 246.286 161.081 246.219 160.99 246.181C160.906 246.135 160.812 246.107 160.716 246.1C160.62 246.092 160.523 246.106 160.432 246.139C159.712 246.385 159.124 247.765 159.1 247.825C159.092 247.844 159.087 247.865 159.087 247.885C159.087 247.906 159.092 247.927 159.1 247.945C159.114 247.964 159.133 247.978 159.155 247.987L159.232 247.993ZM160.864 246.397C161.008 246.475 161.015 246.553 161.003 246.607C160.931 246.967 160.048 247.525 159.43 247.699C159.652 247.249 160.084 246.499 160.516 246.367C160.613 246.328 160.72 246.328 160.816 246.367L160.864 246.397Z" fill="#FF5900"/>
<path d="M153.539 245.575L158.423 247.549L162.689 236.263L157.799 234.289L153.539 245.575Z" fill="#FFBF84"/>
<path d="M159.04 247.148L153.556 244.934C153.463 244.893 153.358 244.887 153.261 244.918C153.164 244.949 153.081 245.014 153.028 245.102L150.628 249.122C150.572 249.225 150.538 249.339 150.529 249.457C150.52 249.574 150.536 249.692 150.576 249.803C150.617 249.914 150.68 250.015 150.763 250.099C150.845 250.183 150.945 250.249 151.054 250.292C152.986 251.036 153.952 251.294 156.364 252.272C157.852 252.872 159.964 253.898 162.004 254.732C164.044 255.566 165.004 253.61 164.218 253.082C160.732 250.724 160.618 249.362 159.748 247.778C159.593 247.491 159.343 247.268 159.04 247.148Z" fill="#263238"/>
<path d="M162.623 241.802L154.139 238.37L154.919 235.262L164.021 238.592L162.623 241.802Z" fill="#DA4C00"/>
<path d="M171.119 111.169C169.397 116.155 164.303 127.891 160.373 123.001C159.665 122.138 159.087 121.176 158.657 120.145C156.995 116.035 156.581 109.375 156.371 107.917L155.033 103.351C155.009 103.274 154.997 103.193 154.997 103.111V100.501C154.997 99.4455 155.849 98.8155 157.001 98.9115C157.001 98.9115 158.861 98.6955 158.861 99.8055L159.221 103.723C159.407 105.085 158.867 106.981 159.185 108.229C160.385 112.927 162.035 113.143 163.073 117.991C164.519 114.493 167.105 108.439 167.105 108.439C168.821 108.655 171.683 109.531 171.119 111.169Z" fill="#FFBF84"/>
<path d="M164.962 124.789C164.692 125.21 164.324 125.559 163.89 125.807C163.455 126.054 162.967 126.192 162.467 126.209C161.967 126.227 161.471 126.122 161.02 125.905C160.57 125.688 160.179 125.365 159.88 124.963C159.169 124.018 158.61 122.967 158.224 121.849C156.664 116.731 155.698 113.563 155.566 108.217C156.119 107.659 156.818 107.266 157.583 107.085C158.347 106.904 159.148 106.94 159.892 107.191L162.448 115.849C162.448 115.849 167.65 102.919 169.756 102.457C172.234 101.911 173.266 104.125 174.316 106.849C175.072 108.805 168.352 119.563 164.962 124.789Z" fill="#263238"/>
<path d="M185.98 89.5156C185.38 92.5156 184.072 99.0676 186.172 101.072C186.172 101.072 185.35 104.114 179.776 104.114C173.638 104.114 176.842 101.072 176.842 101.072C180.19 100.274 180.1 97.7896 179.518 95.4556L185.98 89.5156Z" fill="#FFBF84"/>
<path d="M176.603 82.4714C176.638 82.477 176.675 82.477 176.711 82.4714C176.766 82.4409 176.807 82.3902 176.826 82.3298C176.845 82.2695 176.84 82.2042 176.813 82.1474C176.652 81.8027 176.411 81.502 176.109 81.2711C175.807 81.0401 175.453 80.8858 175.079 80.8214C175.047 80.8172 175.016 80.8194 174.985 80.8278C174.955 80.8362 174.927 80.8506 174.902 80.8702C174.877 80.8898 174.857 80.9142 174.842 80.9419C174.827 80.9696 174.818 81 174.815 81.0314C174.81 81.0626 174.813 81.0944 174.821 81.1247C174.829 81.1551 174.844 81.1835 174.863 81.2081C174.883 81.2328 174.907 81.2532 174.935 81.2682C174.963 81.2832 174.993 81.2924 175.025 81.2954C175.32 81.353 175.597 81.4798 175.834 81.6655C176.071 81.8512 176.26 82.0903 176.387 82.3634C176.41 82.3989 176.442 82.4276 176.48 82.4465C176.518 82.4655 176.56 82.4741 176.603 82.4714Z" fill="#263238"/>
<path d="M174.772 85.0635C174.297 85.9408 173.704 86.7484 173.008 87.4635C173.197 87.6361 173.42 87.7658 173.664 87.8435C173.907 87.9212 174.165 87.9451 174.418 87.9135L174.772 85.0635Z" fill="#ED893E"/>
<path d="M175.253 84.1877C175.343 84.5837 175.199 84.9557 174.941 85.0097C174.683 85.0637 174.395 84.7877 174.311 84.4097C174.227 84.0317 174.365 83.6417 174.629 83.5817C174.893 83.5217 175.169 83.7857 175.253 84.1877Z" fill="#263238"/>
<path d="M174.749 83.5632L173.729 83.4912C173.729 83.4912 174.383 84.1332 174.749 83.5632Z" fill="#263238"/>
<path opacity="0.2" d="M170.902 108.614C171.964 107.636 172.702 107.93 173.17 108.704C173.656 110.948 170.77 115.652 169.636 117.434L170.902 108.614Z" fill="black"/>
<path d="M195.473 111.571C195.335 114.043 195.101 117.157 194.723 121.075C194.327 125.209 193.763 130.231 192.989 136.333C184.835 136.333 176.297 136.207 172.331 136.207C172.667 128.101 172.787 119.887 169.151 103.759C169.105 103.559 169.1 103.352 169.136 103.15C169.172 102.948 169.248 102.756 169.36 102.584C169.472 102.412 169.618 102.264 169.788 102.15C169.958 102.035 170.149 101.956 170.351 101.917C172.721 101.487 175.115 101.205 177.521 101.071C180.627 100.849 183.745 100.849 186.851 101.071C190.853 101.437 195.401 102.367 195.401 102.367C195.401 102.367 195.893 103.855 195.473 111.571Z" fill="#263238"/>
<path opacity="0.2" d="M195.473 111.571C195.335 114.043 195.101 117.157 194.723 121.075C192.527 118.531 190.451 109.771 191.123 106.777C192.76 107.988 194.199 109.445 195.389 111.097C195.425 111.254 195.453 111.412 195.473 111.571Z" fill="black"/>
<path d="M216.647 122.551L220.847 120.199L221.627 124.477C221.627 124.477 218.087 125.839 216.227 124.885L216.647 122.551Z" fill="#FFBF84"/>
<path d="M223.624 120.686L223.918 122.084C223.961 122.298 223.941 122.521 223.858 122.723C223.776 122.926 223.636 123.1 223.456 123.224L221.608 124.472L220.828 120.194L222.274 119.834C222.419 119.798 222.569 119.791 222.717 119.815C222.864 119.838 223.005 119.892 223.131 119.971C223.257 120.051 223.366 120.155 223.451 120.278C223.536 120.401 223.595 120.54 223.624 120.686Z" fill="#FFBF84"/>
<path d="M191.453 107.323C192.791 110.047 197.699 120.337 199.853 122.713L200.279 123.157L200.489 123.379C200.561 123.451 200.621 123.517 200.735 123.619C201.122 123.987 201.548 124.311 202.007 124.585C202.825 125.058 203.706 125.413 204.623 125.641C206.231 126.014 207.881 126.17 209.531 126.103C212.604 125.98 215.649 125.464 218.591 124.567L218.093 122.071C216.707 122.191 215.255 122.275 213.851 122.299C212.459 122.34 211.067 122.296 209.681 122.167C208.395 122.075 207.126 121.827 205.901 121.429C205.406 121.263 204.937 121.026 204.509 120.727C204.345 120.612 204.194 120.479 204.059 120.331C204.011 120.282 203.967 120.23 203.927 120.175L203.771 119.989L203.453 119.617C201.797 117.541 197.423 107.533 196.109 105.031L191.453 107.323Z" fill="#FFBF84"/>
<path d="M216.581 126.811C213.123 128.649 209.077 129.042 205.331 127.903C201.756 126.754 198.741 124.31 196.877 121.051C194.711 117.865 188.945 108.853 189.677 106.525C190.535 103.741 192.359 102.013 195.407 102.763C197.549 103.279 201.635 113.683 203.615 117.841C204.389 118.999 205.877 120.841 207.539 121.405C210.473 122.419 212.633 122.005 215.705 121.543C216.269 121.879 216.227 122.401 216.509 122.983C216.811 123.574 216.975 124.226 216.988 124.889C217 125.552 216.861 126.21 216.581 126.811Z" fill="#263238"/>
<path d="M189.005 84.7094C188.087 89.6414 187.805 91.7474 184.973 93.9914C180.725 97.3634 174.863 95.1554 174.293 90.0434C173.777 85.4414 175.367 78.1454 180.479 76.7714C181.604 76.4625 182.79 76.4466 183.924 76.7251C185.057 77.0036 186.101 77.5674 186.955 78.3628C187.81 79.1582 188.446 80.1589 188.805 81.2697C189.164 82.3805 189.232 83.5646 189.005 84.7094Z" fill="#FFBF84"/>
<path d="M206.893 105.669C205.929 106.544 205.629 107.053 204.285 107.527C202.942 108.002 200.034 107.586 199.108 106.681C199.409 107.385 201.163 108.637 202.083 108.75C201.045 109.204 199.843 109.362 198.677 109.198C197.51 109.035 196.448 108.559 195.667 107.85C195.795 108.291 196.063 108.698 196.446 109.033C196.828 109.368 197.312 109.619 197.851 109.762C186.097 110.006 191.048 105.596 183.686 99.3225C175.54 92.3793 177.307 86.6389 177.307 86.6389C177.326 85.2092 176.764 83.8129 175.705 82.6588C174.528 81.4559 174.871 79.8326 175.245 78.9231C175.791 77.5882 177.454 77.1188 179.049 77.0406C179.331 75.7253 182.729 75.9649 183.14 76.1849C183.551 76.405 183.6 76.361 183.975 76.1849C184.803 75.7595 186.888 75.3195 189.121 76.757C190.483 77.6371 191.943 79.2018 191.992 82.5659C192.041 86.0521 189.949 90.1936 197.188 95.4891C201.451 98.5988 199.409 105.302 206.893 105.669Z" fill="#384145"/>
<path d="M176.626 85.0817C176.068 85.8728 175.836 86.8482 175.978 87.8057C176.182 89.0717 177.412 89.1557 178.306 88.3457C179.2 87.5357 179.98 86.0717 179.32 85.0217C178.66 83.9717 177.322 84.1217 176.626 85.0817Z" fill="#FFBF84"/>
<path d="M187.763 136.327C187.763 136.327 185.309 170.773 182.549 193.489C181.719 200.306 179.64 206.913 176.417 212.977L162.893 238.513L155.957 235.783C155.957 235.783 160.757 211.513 170.111 198.277C170.111 198.277 163.115 158.719 172.271 136.207L187.763 136.327Z" fill="#FF5900"/>
<path opacity="0.2" d="M178.33 144.674C178.33 144.674 180.394 160.274 181.522 169.556C177.292 163.976 174.01 156.188 178.33 144.674Z" fill="black"/>
<path d="M205.276 252.025C205.357 251.936 205.413 251.826 205.438 251.709C205.463 251.591 205.457 251.468 205.42 251.353C205.407 251.28 205.373 251.211 205.323 251.155C205.274 251.099 205.21 251.058 205.138 251.035C204.496 250.819 203.002 251.989 202.834 252.121C202.816 252.137 202.802 252.158 202.795 252.181C202.787 252.205 202.787 252.23 202.792 252.253C202.8 252.275 202.814 252.295 202.832 252.31C202.85 252.325 202.871 252.334 202.894 252.337C203.361 252.408 203.834 252.426 204.304 252.391C204.661 252.385 205.005 252.256 205.276 252.025ZM205.054 251.269C205.087 251.279 205.115 251.297 205.136 251.323C205.158 251.349 205.171 251.38 205.174 251.413C205.201 251.488 205.207 251.569 205.192 251.647C205.178 251.725 205.142 251.797 205.09 251.857C204.85 252.127 204.166 252.223 203.23 252.127C203.842 251.671 204.718 251.149 205.054 251.269Z" fill="#FF5900"/>
<path d="M202.984 252.32C203.458 251.99 204.304 250.784 204.124 250.214C204.096 250.119 204.036 250.037 203.954 249.981C203.872 249.925 203.773 249.899 203.674 249.908C203.579 249.905 203.484 249.923 203.396 249.96C203.308 249.998 203.229 250.053 203.164 250.124C202.642 250.676 202.78 252.164 202.786 252.23C202.79 252.251 202.798 252.271 202.811 252.289C202.823 252.307 202.84 252.321 202.858 252.332C202.88 252.337 202.903 252.337 202.924 252.332C202.945 252.334 202.966 252.33 202.984 252.32ZM203.668 250.154C203.83 250.154 203.872 250.226 203.89 250.28C203.992 250.634 203.482 251.528 203.02 251.966C202.951 251.388 203.064 250.802 203.344 250.292C203.413 250.216 203.507 250.169 203.608 250.16L203.668 250.154Z" fill="#FF5900"/>
<path d="M196.804 252.805L202.06 252.301L200.452 240.361L195.196 240.871L196.804 252.805Z" fill="#FFBF84"/>
<path d="M202.415 251.671L196.511 252.241C196.409 252.249 196.314 252.293 196.243 252.366C196.172 252.439 196.131 252.536 196.127 252.637L195.911 257.299C195.911 257.418 195.936 257.535 195.984 257.643C196.033 257.751 196.103 257.847 196.192 257.926C196.28 258.005 196.384 258.064 196.497 258.1C196.61 258.136 196.729 258.147 196.847 258.133C198.899 257.905 199.847 257.689 202.475 257.437C204.071 257.281 206.423 257.221 208.631 257.011C210.839 256.801 210.737 254.641 209.831 254.533C205.631 254.059 204.857 252.919 203.357 251.905C203.079 251.72 202.746 251.638 202.415 251.671Z" fill="#263238"/>
<path d="M192.958 136.321C192.958 136.321 199.684 177.427 200.974 201.775L201.22 245.395L195.778 246.457C195.778 246.457 187.9 218.629 186.988 202.543C184.588 159.871 170.686 159.799 179.05 136.243L192.958 136.321Z" fill="#FF5900"/>
<path d="M203.027 245.576L194.021 246.806L193.103 243.35L202.733 242.096L203.027 245.576Z" fill="#DA4C00"/>
<path d="M154.492 92.2217H154.834C154.753 92.2216 154.672 92.238 154.598 92.27C154.523 92.3021 154.455 92.349 154.399 92.4079C154.343 92.4668 154.299 92.5366 154.271 92.6128C154.243 92.6891 154.23 92.7704 154.234 92.8517L154.786 103.298C154.803 103.462 154.879 103.614 155.001 103.724C155.123 103.835 155.282 103.897 155.446 103.898H155.092C154.928 103.896 154.77 103.834 154.648 103.723C154.527 103.612 154.45 103.461 154.432 103.298L153.892 92.8517C153.888 92.7704 153.901 92.6891 153.929 92.6128C153.957 92.5366 154.001 92.4668 154.057 92.4079C154.113 92.349 154.181 92.3021 154.256 92.27C154.33 92.238 154.411 92.2216 154.492 92.2217Z" fill="#017BE0"/>
<path opacity="0.1" d="M154.492 92.2217H154.834C154.753 92.2216 154.672 92.238 154.598 92.27C154.523 92.3021 154.455 92.349 154.399 92.4079C154.343 92.4668 154.299 92.5366 154.271 92.6128C154.243 92.6891 154.23 92.7704 154.234 92.8517L154.786 103.298C154.803 103.462 154.879 103.614 155.001 103.724C155.123 103.835 155.282 103.897 155.446 103.898H155.092C154.928 103.896 154.77 103.834 154.648 103.723C154.527 103.612 154.45 103.461 154.432 103.298L153.892 92.8517C153.888 92.7704 153.901 92.6891 153.929 92.6128C153.957 92.5366 154.001 92.4668 154.057 92.4079C154.113 92.349 154.181 92.3021 154.256 92.27C154.33 92.238 154.411 92.2216 154.492 92.2217Z" fill="white"/>
<path d="M155.182 103.927H159.382C159.541 103.927 159.694 103.864 159.807 103.751C159.919 103.639 159.982 103.486 159.982 103.327L159.436 92.881C159.426 92.7122 159.352 92.5536 159.23 92.4368C159.107 92.32 158.945 92.2537 158.776 92.251H154.576C154.495 92.2509 154.414 92.2673 154.34 92.2993C154.265 92.3314 154.197 92.3783 154.141 92.4372C154.085 92.4961 154.041 92.5659 154.013 92.6421C153.985 92.7184 153.972 92.7997 153.976 92.881L154.522 103.327C154.54 103.49 154.617 103.642 154.738 103.752C154.86 103.863 155.018 103.925 155.182 103.927Z" fill="#017BE0"/>
<path opacity="0.4" d="M155.182 103.927H159.382C159.541 103.927 159.694 103.864 159.807 103.751C159.919 103.639 159.982 103.486 159.982 103.327L159.436 92.881C159.426 92.7122 159.352 92.5536 159.23 92.4368C159.107 92.32 158.945 92.2537 158.776 92.251H154.576C154.495 92.2509 154.414 92.2673 154.34 92.2993C154.265 92.3314 154.197 92.3783 154.141 92.4372C154.085 92.4961 154.041 92.5659 154.013 92.6421C153.985 92.7184 153.972 92.7997 153.976 92.881L154.522 103.327C154.54 103.49 154.617 103.642 154.738 103.752C154.86 103.863 155.018 103.925 155.182 103.927Z" fill="white"/>
<path d="M159.73 103.082C159.734 103.134 159.726 103.186 159.709 103.236C159.691 103.285 159.664 103.331 159.628 103.37C159.553 103.443 159.452 103.484 159.346 103.484H155.26C155.146 103.482 155.037 103.437 154.954 103.358C154.872 103.279 154.822 103.172 154.816 103.058L154.282 92.9235C154.278 92.872 154.285 92.8202 154.303 92.7716C154.321 92.723 154.348 92.6787 154.384 92.6415C154.42 92.6029 154.464 92.5723 154.513 92.5517C154.561 92.531 154.614 92.5207 154.666 92.5215H158.752C158.867 92.5229 158.976 92.5677 159.058 92.6468C159.141 92.7259 159.19 92.8334 159.196 92.9475L159.232 93.6735L159.73 103.082Z" fill="#263238"/>
<g opacity="0.1">
<path d="M159.232 93.6738L157.876 103.472H156.25L157.786 92.5098H158.752C158.867 92.5111 158.976 92.5559 159.059 92.635C159.141 92.7141 159.19 92.8217 159.196 92.9358L159.232 93.6738Z" fill="white"/>
<path d="M155.662 103.483H155.296L156.832 92.5215H157.198L155.662 103.483Z" fill="white"/>
</g>
<path d="M171.005 137.492C167.95 143.513 166.308 150.151 166.205 156.902C176.405 164.816 185.903 155.546 197.579 157.112C197.171 151.838 195.377 142.112 193.253 137.24C185.519 137.57 178.295 136.796 171.005 137.492Z" fill="#263238"/>
<path d="M172.066 135.349C172.066 135.349 171.244 137.467 171.466 137.467H192.892C193.078 137.467 193.228 137.377 193.24 137.257L193.426 135.457C193.426 135.331 193.276 135.223 193.078 135.223H172.402C172.34 135.215 172.277 135.222 172.218 135.244C172.16 135.266 172.107 135.302 172.066 135.349Z" fill="#FF5900"/>
<path d="M175.085 137.672H174.533C174.419 137.672 174.335 137.612 174.341 137.54L174.605 135.14C174.605 135.068 174.707 135.014 174.815 135.014H175.373C175.481 135.014 175.565 135.068 175.559 135.14L175.301 137.54C175.284 137.582 175.254 137.618 175.215 137.642C175.176 137.666 175.13 137.676 175.085 137.672Z" fill="#263238"/>
<path d="M188.501 137.672H187.949C187.841 137.672 187.757 137.612 187.763 137.54L188.021 135.14C188.021 135.068 188.123 135.014 188.237 135.014H188.789C188.897 135.014 188.981 135.068 188.975 135.14L188.717 137.54C188.693 137.588 188.615 137.672 188.501 137.672Z" fill="#263238"/>
</svg>
