<svg width="40" height="40" viewBox="0 0 40 40" fill="none" xmlns="http://www.w3.org/2000/svg">
<path fill-rule="evenodd" clip-rule="evenodd" d="M35.5033 21.9385C36.1455 21.9385 36.6662 22.4591 36.6662 23.1013V23.1886C36.6662 26.038 36.6662 28.2948 36.4287 30.061C36.1843 31.8786 35.6695 33.35 34.5092 34.5101C33.349 35.6705 31.8777 36.1853 30.06 36.4296C28.2938 36.6671 26.037 36.6671 23.1877 36.6671H23.1003C22.4582 36.6671 21.9375 36.1465 21.9375 35.5043C21.9375 34.8621 22.4582 34.3416 23.1003 34.3416C26.0567 34.3416 28.1568 34.3391 29.7502 34.1248C31.31 33.9151 32.2087 33.5218 32.8648 32.8658C33.5208 32.2096 33.9142 31.311 34.1238 29.7511C34.3382 28.1578 34.3407 26.0576 34.3407 23.1013C34.3407 22.4591 34.8612 21.9385 35.5033 21.9385Z" fill="#027BE0"/>
<path fill-rule="evenodd" clip-rule="evenodd" d="M4.49678 21.9385C5.13897 21.9385 5.65957 22.4591 5.65957 23.1013C5.65957 26.0576 5.66203 28.1578 5.87625 29.7511C6.08597 31.311 6.47925 32.2096 7.13538 32.8658C7.79152 33.5218 8.6902 33.9151 10.25 34.1248C11.8433 34.3391 13.9436 34.3416 16.8998 34.3416C17.542 34.3416 18.0627 34.8621 18.0627 35.5043C18.0627 36.1465 17.542 36.6671 16.8998 36.6671H16.8125C13.9632 36.6671 11.7064 36.6671 9.94015 36.4296C8.12243 36.1853 6.6512 35.6705 5.49095 34.5101C4.3307 33.35 3.81578 31.8786 3.5714 30.061C3.33393 28.2948 3.33397 26.038 3.33398 23.1886C3.33398 23.1596 3.33398 23.1305 3.33398 23.1013C3.33398 22.4591 3.85458 21.9385 4.49678 21.9385Z" fill="#027BE0"/>
<path fill-rule="evenodd" clip-rule="evenodd" d="M16.8125 3.33301H16.8998C17.5422 3.33301 18.0627 3.85361 18.0627 4.49581C18.0627 5.13799 17.5422 5.65859 16.8998 5.65859C13.9436 5.65859 11.8433 5.66106 10.25 5.87527C8.6902 6.08499 7.79152 6.47827 7.13538 7.13441C6.47925 7.79054 6.08597 8.68922 5.87625 10.2491C5.66203 11.8423 5.65957 13.9426 5.65957 16.8988C5.65957 17.541 5.13897 18.0617 4.49678 18.0617C3.85458 18.0617 3.33398 17.541 3.33398 16.8988V16.8115C3.33397 13.9622 3.33393 11.7054 3.5714 9.93917C3.81578 8.12146 4.3307 6.65022 5.49095 5.48997C6.6512 4.32972 8.12245 3.81481 9.94015 3.57042C11.7064 3.33296 13.9632 3.33299 16.8125 3.33301Z" fill="#027BE0"/>
<path fill-rule="evenodd" clip-rule="evenodd" d="M29.7502 5.87527C28.1568 5.66106 26.0567 5.65859 23.1003 5.65859C22.4582 5.65859 21.9375 5.13799 21.9375 4.49581C21.9375 3.85361 22.4582 3.33301 23.1003 3.33301C23.1295 3.33301 23.1587 3.33301 23.1877 3.33301C26.037 3.33299 28.2938 3.33296 30.06 3.57042C31.8777 3.81481 33.349 4.32972 34.5092 5.48997C35.6695 6.65022 36.1843 8.12146 36.4287 9.93917C36.6662 11.7054 36.6662 13.9622 36.6662 16.8115V16.8988C36.6662 17.5412 36.1455 18.0617 35.5033 18.0617C34.8612 18.0617 34.3407 17.5412 34.3407 16.8988C34.3407 13.9426 34.3382 11.8423 34.1238 10.2491C33.9142 8.68922 33.5208 7.79054 32.8648 7.13441C32.2087 6.47827 31.31 6.08499 29.7502 5.87527Z" fill="#027BE0"/>
<path fill-rule="evenodd" clip-rule="evenodd" d="M8.95996 8.95898C7.59766 10.3213 7.59766 12.5138 7.59766 16.8989V23.1006C7.59766 27.4858 7.59766 29.6783 8.95996 31.0406C10.3222 32.4029 12.5148 32.4029 16.8999 32.4029H23.1016C27.4868 32.4029 29.6793 32.4029 31.0416 31.0406C32.4039 29.6783 32.4039 27.4858 32.4039 23.1006V16.8989C32.4039 12.5138 32.4039 10.3213 31.0416 8.95898C29.6793 7.59668 27.4868 7.59668 23.1016 7.59668H16.8999C12.5148 7.59668 10.3222 7.59668 8.95996 8.95898ZM15.1136 24.2389C15.4482 23.7874 16.0854 23.6928 16.5369 24.0273C17.5249 24.7598 18.7176 25.1839 20.0008 25.1839C21.2839 25.1839 22.4766 24.7598 23.4646 24.0273C23.9161 23.6928 24.5533 23.7874 24.8879 24.2389C25.2226 24.6903 25.1278 25.3274 24.6764 25.6621C23.3573 26.6399 21.7439 27.2188 20.0008 27.2188C18.2576 27.2188 16.6443 26.6399 15.3251 25.6621C14.8737 25.3274 14.779 24.6903 15.1136 24.2389ZM25.4271 17.3834C25.4271 18.5073 24.8198 19.4184 24.0706 19.4184C23.3213 19.4184 22.7139 18.5073 22.7139 17.3834C22.7139 16.2597 23.3213 15.3486 24.0706 15.3486C24.8198 15.3486 25.4271 16.2597 25.4271 17.3834ZM15.931 19.4184C16.6803 19.4184 17.2876 18.5073 17.2876 17.3834C17.2876 16.2597 16.6803 15.3486 15.931 15.3486C15.1818 15.3486 14.5744 16.2597 14.5744 17.3834C14.5744 18.5073 15.1818 19.4184 15.931 19.4184Z" fill="#2A5CBD"/>
</svg>
