<svg width="300" height="300" viewBox="0 0 300 300" fill="none" xmlns="http://www.w3.org/2000/svg">
<path d="M55.7099 69.6297C72.4619 33.9597 131.946 38.9997 154.896 64.0737C177.846 89.1477 185.316 105.234 206.022 95.8737C226.728 86.5137 253.134 89.0097 254.652 118.77C256.17 148.53 231.9 183.72 193.398 194.136C154.896 204.552 154.896 241.392 103.938 233.952C76.1519 229.902 75.5159 199.836 79.4399 174.972C83.3639 150.108 36.2819 111 55.7099 69.6297Z" fill="#017BE0"/>
<path opacity="0.9" d="M55.7099 69.6297C72.4619 33.9597 131.946 38.9997 154.896 64.0737C177.846 89.1477 185.316 105.234 206.022 95.8737C226.728 86.5137 253.134 89.0097 254.652 118.77C256.17 148.53 231.9 183.72 193.398 194.136C154.896 204.552 154.896 241.392 103.938 233.952C76.1519 229.902 75.5159 199.836 79.4399 174.972C83.3639 150.108 36.2819 111 55.7099 69.6297Z" fill="white"/>
<path d="M176.46 242.316L182.436 241.446L180.93 227.466L174.948 228.336L176.46 242.316Z" fill="#FFBF84"/>
<path d="M187.032 241.656C187.55 241.617 188.04 241.406 188.424 241.056C188.504 240.955 188.559 240.835 188.583 240.707C188.607 240.58 188.6 240.449 188.562 240.324C188.544 240.248 188.507 240.177 188.455 240.118C188.403 240.059 188.336 240.015 188.262 239.988C187.464 239.7 185.262 241.314 185.034 241.494C185.009 241.513 184.991 241.538 184.982 241.567C184.972 241.596 184.971 241.627 184.98 241.656C184.99 241.683 185.008 241.706 185.032 241.722C185.055 241.739 185.083 241.747 185.112 241.746C185.753 241.774 186.396 241.743 187.032 241.656ZM187.872 240.252C187.961 240.232 188.053 240.232 188.142 240.252C188.173 240.262 188.201 240.28 188.223 240.304C188.246 240.329 188.261 240.358 188.268 240.39C188.293 240.473 188.297 240.56 188.282 240.644C188.266 240.729 188.23 240.808 188.178 240.876C187.872 241.254 186.894 241.476 185.538 241.476C186.248 240.946 187.043 240.54 187.89 240.276L187.872 240.252Z" fill="#FF5900"/>
<path d="M185.148 241.752H185.196C185.862 241.314 187.056 239.79 186.828 239.136C186.781 239.021 186.696 238.926 186.586 238.868C186.476 238.81 186.349 238.792 186.228 238.818C186.085 238.823 185.943 238.856 185.813 238.917C185.683 238.978 185.567 239.065 185.472 239.172C184.83 239.916 184.956 241.572 184.956 241.62C184.956 241.644 184.962 241.668 184.972 241.69C184.983 241.712 184.998 241.731 185.016 241.746C185.036 241.757 185.059 241.762 185.081 241.763C185.104 241.764 185.127 241.761 185.148 241.752ZM186.15 239.1L186.234 239.058C186.498 239.058 186.528 239.148 186.534 239.178C186.678 239.58 185.88 240.75 185.22 241.29C185.16 240.6 185.322 239.908 185.682 239.316C185.809 239.185 185.98 239.106 186.162 239.094L186.15 239.1Z" fill="#FF5900"/>
<path d="M181.8 238.968L176.502 240.234C176.387 240.257 176.285 240.322 176.215 240.416C176.145 240.51 176.113 240.627 176.124 240.744L176.298 248.418C176.316 248.545 176.358 248.667 176.423 248.778C176.488 248.889 176.575 248.986 176.677 249.063C176.78 249.141 176.896 249.197 177.021 249.23C177.145 249.262 177.275 249.269 177.402 249.252C177.44 249.255 177.478 249.255 177.516 249.252C179.808 248.652 180.894 248.292 183.81 247.614C185.61 247.206 191.268 246.774 193.59 245.742C195.912 244.71 195.006 242.358 193.95 242.58C190.542 243.312 186.15 241.854 183.684 239.634C183.372 239.448 182.19 238.878 181.8 238.968Z" fill="#263238"/>
<path opacity="0.2" d="M180.93 227.466L181.704 234.672L175.728 235.548L174.948 228.342L180.93 227.466Z" fill="black"/>
<path d="M184.122 231.708L173.064 233.772C173.064 233.772 167.694 226.104 166.68 220.662C165.624 214.992 166.752 195.696 166.68 195.462C163.554 184.902 155.052 157.542 150.954 147.462C148.68 141.882 147.084 138.126 147.084 138.126L148.23 137.868L157.26 134.172L163.86 135.408C163.86 135.408 183.846 175.83 185.94 191.034C187.482 202.374 184.122 231.708 184.122 231.708Z" fill="#FF5900"/>
<path opacity="0.2" d="M164.076 186.294C160.95 175.734 154.638 159.72 150.534 149.652L147.816 140.052L147.294 138.204L148.248 139.95L158.958 163.674C163.686 172.8 164.148 186.552 164.076 186.294Z" fill="black"/>
<path d="M115.542 239.028L120.87 241.272L126.552 229.074L121.23 226.83L115.542 239.028Z" fill="#FFBF84"/>
<path d="M124.338 243.823C124.76 244.087 125.26 244.199 125.754 244.141C125.874 244.109 125.985 244.048 126.076 243.963C126.167 243.878 126.236 243.772 126.276 243.655C126.307 243.586 126.319 243.511 126.312 243.436C126.304 243.361 126.277 243.29 126.234 243.229C125.778 242.557 123.18 242.563 122.892 242.563C122.864 242.565 122.836 242.576 122.813 242.593C122.79 242.61 122.772 242.632 122.76 242.659C122.753 242.685 122.753 242.714 122.762 242.741C122.77 242.767 122.786 242.791 122.808 242.809C123.286 243.193 123.798 243.532 124.338 243.823ZM125.778 243.223C125.861 243.257 125.934 243.313 125.988 243.385C126.003 243.411 126.01 243.441 126.01 243.472C126.01 243.502 126.003 243.532 125.988 243.559C125.96 243.635 125.915 243.705 125.855 243.761C125.796 243.817 125.724 243.859 125.646 243.883C125.19 244.003 124.32 243.619 123.246 242.851C124.102 242.831 124.954 242.959 125.766 243.229L125.778 243.223Z" fill="#FF5900"/>
<path d="M122.832 242.832H122.88C123.642 242.874 125.424 242.37 125.622 241.74C125.654 241.622 125.643 241.498 125.592 241.388C125.54 241.278 125.451 241.19 125.34 241.14C125.228 241.061 125.1 241.007 124.966 240.981C124.832 240.956 124.693 240.958 124.56 240.99C123.636 241.194 122.814 242.532 122.76 242.586C122.75 242.606 122.745 242.629 122.745 242.652C122.745 242.675 122.75 242.697 122.76 242.718C122.761 242.741 122.768 242.764 122.781 242.784C122.794 242.804 122.811 242.82 122.832 242.832ZM125.106 241.35H125.19C125.4 241.488 125.364 241.584 125.352 241.614C125.238 241.998 123.966 242.454 123.15 242.502C123.49 241.934 124.003 241.491 124.614 241.236C124.789 241.206 124.968 241.242 125.118 241.338L125.106 241.35Z" fill="#FF5900"/>
<path d="M121.836 238.8L117.036 236.784C116.932 236.732 116.812 236.721 116.7 236.755C116.589 236.788 116.494 236.863 116.436 236.964L112.236 242.964C112.177 243.072 112.14 243.191 112.127 243.314C112.114 243.436 112.125 243.56 112.161 243.678C112.196 243.797 112.254 243.907 112.332 244.002C112.409 244.098 112.505 244.177 112.614 244.236L112.716 244.284C114.81 245.142 115.866 245.454 118.5 246.582C120.114 247.278 124.734 250.152 127.11 250.662C129.486 251.172 130.11 248.862 129.174 248.424C126.132 247.062 123.576 243.462 122.91 240.348C122.76 240.048 122.172 238.938 121.836 238.8Z" fill="#263238"/>
<path opacity="0.2" d="M126.786 229.218L123.708 235.428L118.434 233.064L121.506 226.848L126.786 229.218Z" fill="black"/>
<path d="M127.896 235.986L117.288 230.334C117.288 230.334 115.254 222.78 117.288 217.962C121.2 208.692 131.388 195.06 131.454 194.802C134.172 184.134 138.936 154.908 140.568 144.162C141.468 138.204 142.002 136.92 142.002 136.92L143.124 137.286L159.324 137.316C159.324 137.316 162.384 161.916 150.648 199.956C147.732 209.424 142.848 217.296 134.79 227.946C132.632 230.743 130.331 233.427 127.896 235.986Z" fill="#FF5900"/>
<path d="M173.736 117.234C173.982 115.285 174.807 113.454 176.106 111.978C176.436 111.63 177.702 111.102 178.422 110.634C181.944 108.324 189 105.438 189 105.438L191.178 107.334C191.178 107.334 186.882 111.486 184.326 113.478C183.822 113.874 183.24 114.348 182.628 114.852C181.512 115.776 176.28 119.226 175.284 120.096L173.736 117.234Z" fill="#FFBF84"/>
<path d="M195.204 104.364L191.178 107.364L188.922 105.702C189.501 104.969 190.124 104.272 190.788 103.614C190.992 103.416 191.154 103.179 191.266 102.917C191.377 102.656 191.435 102.374 191.436 102.09C191.39 101.162 191.598 100.239 192.036 99.42C192.035 99.404 192.035 99.388 192.036 99.372C192.241 99.0832 192.524 98.8588 192.852 98.7251C193.18 98.5913 193.54 98.5537 193.888 98.6166C194.237 98.6795 194.561 98.8404 194.821 99.0804C195.082 99.3204 195.269 99.6297 195.36 99.972L195.96 102.12C196.07 102.527 196.057 102.957 195.922 103.357C195.788 103.756 195.538 104.107 195.204 104.364Z" fill="#FFBF84"/>
<path d="M175.02 118.038L173.958 119.01C173.628 118.746 173.106 118.32 172.446 117.768C167.274 113.478 154.308 103.062 159.474 100.092C163.908 97.5422 168.612 105.336 170.958 107.682C172.059 108.856 173.014 110.16 173.802 111.564C174.906 113.556 175.722 115.962 175.02 118.038Z" fill="#263238"/>
<path d="M173.796 110.634C171.956 111.98 170.4 113.677 169.218 115.626C169.651 117.044 170.383 118.352 171.364 119.464C172.345 120.575 173.553 121.464 174.906 122.07C176.41 118.66 177.055 114.933 176.784 111.216C175.848 111 174.732 110.838 173.796 110.634Z" fill="#263238"/>
<path d="M145.326 99.4861C143.472 100.086 141.354 99.6001 140.166 101.142C138.978 102.684 138.624 104.706 138.624 106.65C138.733 109.354 139.148 112.037 139.86 114.648C140.604 117.848 141.35 121.038 142.098 124.218C142.608 126.402 142.068 136.548 142.614 136.716C142.614 136.716 159.576 136.386 163.83 135.786C163.83 135.786 164.196 125.358 164.538 121.806C164.616 121.02 165.81 117.672 165.948 116.832C166.614 112.872 165.312 110.082 163.944 106.302C163.944 106.302 160.944 100.26 159.474 100.092C156.864 99.7981 150.48 97.8001 145.326 99.4861Z" fill="#263238"/>
<path d="M144.6 104.484C144.54 104.136 141.528 98.052 138.642 102.306C134.628 108.222 134.358 115.65 134.358 115.65C134.358 115.65 131.892 122.85 133.608 124.446C135.324 126.042 137.208 127.038 138.408 126.144C139.255 125.404 139.931 124.489 140.388 123.462C140.388 123.462 145.668 110.676 144.6 104.484Z" fill="#263238"/>
<path d="M144.414 97.2302C144.121 97.4935 143.893 97.8204 143.746 98.1857C143.599 98.551 143.538 98.9451 143.567 99.3377C143.596 99.7304 143.714 100.111 143.913 100.451C144.112 100.791 144.386 101.081 144.714 101.298C144.538 101.915 144.54 102.569 144.719 103.185C144.898 103.801 145.248 104.354 145.727 104.78C146.207 105.207 146.797 105.489 147.429 105.595C148.062 105.7 148.712 105.625 149.304 105.378C148.8 106.29 149.37 107.496 150.252 108.06C151.182 108.541 152.206 108.816 153.252 108.864C154.302 108.914 155.31 109.294 156.132 109.95L159.336 105.336C159.807 104.772 160.112 104.089 160.218 103.362C160.248 102.636 159.696 101.832 158.97 101.886C159.334 101.493 159.537 100.978 159.538 100.443C159.539 99.9071 159.338 99.3909 158.976 98.9967C158.613 98.6026 158.116 98.3593 157.582 98.3155C157.048 98.2717 156.518 98.4304 156.096 98.7602C156.147 98.4455 156.105 98.1227 155.975 97.8316C155.845 97.5405 155.633 97.2938 155.364 97.1222C154.819 96.7933 154.2 96.6056 153.564 96.5762L144.414 97.2302Z" fill="#263238"/>
<path d="M146.34 89.4004C147.174 92.4604 148.188 98.1064 146.166 100.338C149.871 101.938 153.207 104.285 155.964 107.232C156.692 106.563 157.192 105.681 157.392 104.712C157.592 103.743 157.483 102.736 157.08 101.832C156.844 101.259 156.495 100.738 156.054 100.302C155.613 99.8661 155.089 99.5234 154.512 99.2944C152.28 98.3464 152.262 96.1564 152.634 94.0504L146.34 89.4004Z" fill="#FFBF84"/>
<path opacity="0.2" d="M147.6 94.6143L149.706 95.1843C150.609 95.4296 151.553 95.4848 152.478 95.3463C152.4 95.995 152.468 96.6529 152.676 97.2723C151.971 97.5444 151.202 97.606 150.463 97.4494C149.724 97.2928 149.046 96.9249 148.512 96.3903C148.122 95.8462 147.815 95.2478 147.6 94.6143Z" fill="black"/>
<path d="M142.254 86.7897C144.48 91.4937 145.326 93.5337 148.758 95.0337C153.93 97.2957 159.21 93.5157 158.43 88.2417C157.722 83.4957 154.194 76.5897 148.704 76.5657C147.495 76.5545 146.304 76.8521 145.242 77.4304C144.181 78.0086 143.285 78.8483 142.639 79.8698C141.993 80.8914 141.618 82.061 141.551 83.2678C141.484 84.4746 141.726 85.6786 142.254 86.7657V86.7897Z" fill="#FFBF84"/>
<path d="M144.702 77.8018C143.076 77.0458 141.06 77.6638 139.704 78.8518C138.348 80.0398 137.49 81.7558 136.704 83.4058C136.231 84.2836 135.868 85.2168 135.624 86.1838C135.381 87.1624 135.514 88.1963 135.996 89.0818C136.253 89.4956 136.605 89.8424 137.022 90.0938C137.439 90.3451 137.91 90.4939 138.396 90.5278C138.695 90.5463 138.983 90.646 139.229 90.8162C139.476 90.9865 139.671 91.2208 139.794 91.4938C139.917 91.9984 139.917 92.5252 139.794 93.0298C139.68 93.5193 139.68 94.0284 139.794 94.5178C139.957 94.9027 140.226 95.2339 140.569 95.4737C140.911 95.7134 141.314 95.8521 141.732 95.8738C142.568 95.897 143.4 95.7627 144.186 95.4778C144.425 95.3961 144.682 95.3797 144.93 95.4303C145.178 95.4809 145.408 95.5968 145.596 95.7658C145.692 95.8541 145.773 95.9575 145.836 96.0718C145.897 96.1759 145.986 96.261 146.093 96.3177C146.199 96.3744 146.319 96.4005 146.44 96.393C146.561 96.3856 146.677 96.3449 146.775 96.2755C146.874 96.2061 146.952 96.1107 147 95.9998C147.726 94.2718 146.67 91.5178 145.098 89.3998C144.264 88.2838 144.306 88.5658 143.982 87.2098C143.706 86.0818 144.12 84.9058 144.624 83.8618C145.302 82.4638 146.166 81.1078 145.896 79.4398C145.845 79.0903 145.71 78.7584 145.502 78.473C145.294 78.1876 145.019 77.9572 144.702 77.8018Z" fill="#263238"/>
<path d="M142.392 91.608C143.133 92.3943 144.156 92.854 145.236 92.886C146.67 92.922 147.036 91.554 146.34 90.384C145.74 89.334 144.216 88.056 142.92 88.584C141.624 89.112 141.492 90.6 142.392 91.608Z" fill="#FFBF84"/>
<path d="M151.2 85.9558C151.368 86.3638 151.698 86.5858 151.956 86.4778C152.214 86.3698 152.28 85.9798 152.136 85.5778C151.992 85.1758 151.644 84.9778 151.38 85.0558C151.116 85.1338 151.062 85.5598 151.2 85.9558Z" fill="#263238"/>
<path d="M155.61 84.0602C155.772 84.4742 156.102 84.6902 156.36 84.5882C156.618 84.4862 156.684 84.0902 156.54 83.6882C156.396 83.2862 156.048 83.0882 155.79 83.1662C155.532 83.2442 155.454 83.6702 155.61 84.0602Z" fill="#263238"/>
<path d="M155.676 83.238L156.51 82.584C156.51 82.584 156.33 83.514 155.676 83.238Z" fill="#263238"/>
<path d="M154.47 84.9424C155.49 85.9504 156.27 86.1424 157.362 86.8264C157.351 87.1019 157.253 87.3668 157.081 87.5826C156.91 87.7984 156.674 87.9538 156.408 88.0264L154.47 84.9424Z" fill="#ED847E"/>
<path d="M155.94 89.9516C156.131 89.8815 156.316 89.7952 156.492 89.6936C156.52 89.6783 156.54 89.6528 156.549 89.6224C156.558 89.5921 156.555 89.5594 156.54 89.5316C156.523 89.5045 156.496 89.4846 156.465 89.4758C156.434 89.4669 156.401 89.4697 156.372 89.4836C155.913 89.7502 155.397 89.9034 154.867 89.9306C154.337 89.9577 153.808 89.8579 153.324 89.6396C153.295 89.6248 153.26 89.6221 153.229 89.6322C153.198 89.6423 153.171 89.6644 153.156 89.6936C153.148 89.7076 153.142 89.7232 153.14 89.7395C153.138 89.7557 153.139 89.7722 153.144 89.7879C153.148 89.8037 153.156 89.8183 153.166 89.831C153.177 89.8436 153.19 89.854 153.204 89.8616C153.631 90.0584 154.093 90.1678 154.563 90.1832C155.033 90.1987 155.501 90.1199 155.94 89.9516Z" fill="#263238"/>
<path d="M151.056 82.6857C151.053 82.7408 151.033 82.7935 150.999 82.8365C150.964 82.8796 150.917 82.9108 150.864 82.9257C149.712 83.2677 149.202 84.7257 149.202 84.7257C149.191 84.758 149.174 84.7879 149.152 84.8137C149.13 84.8395 149.103 84.8606 149.073 84.8759C149.042 84.8913 149.009 84.9005 148.975 84.903C148.941 84.9055 148.907 84.9014 148.875 84.8907C148.843 84.8801 148.813 84.8632 148.787 84.841C148.761 84.8188 148.74 84.7918 148.725 84.7614C148.709 84.731 148.7 84.6979 148.698 84.664C148.695 84.6301 148.699 84.596 148.71 84.5637C148.752 84.5037 149.31 82.8297 150.714 82.4097C150.781 82.3927 150.852 82.4019 150.912 82.4353C150.972 82.4688 151.017 82.524 151.038 82.5897C151.052 82.6196 151.058 82.6527 151.056 82.6857Z" fill="#263238"/>
<path d="M156.366 81.9782C156.321 82.01 156.268 82.0271 156.213 82.0271C156.158 82.0271 156.105 82.01 156.06 81.9782C155.124 81.2222 153.63 81.6362 153.624 81.6422C153.591 81.6524 153.557 81.6559 153.523 81.6526C153.489 81.6493 153.456 81.6393 153.425 81.6231C153.395 81.6069 153.369 81.5849 153.347 81.5583C153.326 81.5317 153.31 81.5011 153.3 81.4682C153.281 81.4022 153.289 81.3314 153.321 81.271C153.354 81.2105 153.408 81.165 153.474 81.1442C153.546 81.1442 155.274 80.6522 156.384 81.5642C156.436 81.6086 156.469 81.671 156.477 81.739C156.485 81.8069 156.467 81.8753 156.426 81.9302C156.409 81.9497 156.389 81.966 156.366 81.9782Z" fill="#263238"/>
<path d="M151.296 85.1216L152.13 84.4736C152.13 84.4736 151.938 85.4036 151.296 85.1216Z" fill="#263238"/>
<path d="M145.062 77.016C144.405 77.0739 143.771 77.28 143.205 77.6188C142.64 77.9576 142.159 78.4203 141.798 78.972C141.318 79.716 141.15 80.844 141.858 81.372C142.219 81.5924 142.635 81.7067 143.058 81.702C144.858 81.864 147.132 80.454 147.132 80.454C146.43 77.454 152.688 75.162 155.772 79.782C156.678 81.138 156.432 82.122 157.938 82.752C158.646 83.046 159.582 82.962 160.038 83.586C160.788 84.612 159.342 86.352 160.26 87.234C160.89 87.834 162.318 87.606 162.408 88.476C162.444 88.884 162.18 89.472 162.57 89.592C162.786 89.658 162.99 89.46 163.128 89.28C163.503 88.8773 163.778 88.3924 163.932 87.864C164.005 87.5999 163.989 87.319 163.886 87.065C163.783 86.8111 163.599 86.5984 163.362 86.46C162.978 86.286 161.964 86.46 162.03 86.892C161.875 85.9404 161.824 84.9746 161.88 84.012C162.048 83.208 162.816 82.506 162.582 81.714C162.348 80.922 161.334 80.514 160.464 80.406C159.594 80.298 158.604 80.172 158.064 79.476C157.524 78.78 157.74 77.58 157.548 76.614C157.387 76.0103 157.086 75.4531 156.669 74.988C156.252 74.5229 155.731 74.1631 155.148 73.938C151.638 72.432 146.256 72.648 145.062 77.016Z" fill="#263238"/>
<path d="M154.944 93L142.944 99.03C141.036 99.986 139.555 101.622 138.794 103.615C138.032 105.609 138.044 107.815 138.828 109.8L144.6 124.56C145.379 126.543 146.869 128.164 148.78 129.106C150.691 130.048 152.885 130.244 154.932 129.654L167.832 125.934C168.976 125.606 170.039 125.042 170.952 124.28C171.866 123.517 172.61 122.572 173.137 121.505C173.664 120.438 173.962 119.272 174.013 118.083C174.063 116.894 173.865 115.708 173.43 114.6L166.74 97.548C166.309 96.4388 165.651 95.4319 164.808 94.5916C163.966 93.7513 162.957 93.0962 161.847 92.6681C160.736 92.24 159.549 92.0484 158.36 92.1056C157.172 92.1627 156.008 92.4673 154.944 93ZM152.958 118.344C152 118.72 150.952 118.803 149.947 118.582C148.942 118.362 148.024 117.849 147.311 117.108C146.597 116.366 146.12 115.43 145.939 114.417C145.757 113.404 145.881 112.36 146.293 111.417C146.705 110.474 147.388 109.675 148.255 109.12C149.121 108.565 150.133 108.28 151.162 108.3C152.191 108.32 153.19 108.645 154.034 109.233C154.879 109.822 155.529 110.648 155.904 111.606C156.156 112.243 156.28 112.924 156.269 113.609C156.257 114.295 156.11 114.971 155.837 115.599C155.563 116.228 155.168 116.796 154.674 117.271C154.18 117.746 153.597 118.119 152.958 118.368V118.344Z" fill="#017BE0"/>
<path d="M154.944 93L142.944 99.03C141.036 99.986 139.555 101.622 138.794 103.615C138.032 105.609 138.044 107.815 138.828 109.8L144.6 124.56C145.379 126.543 146.869 128.164 148.78 129.106C150.691 130.048 152.885 130.244 154.932 129.654L167.832 125.934C168.976 125.606 170.039 125.042 170.952 124.28C171.866 123.517 172.61 122.572 173.137 121.505C173.664 120.438 173.962 119.272 174.013 118.083C174.063 116.894 173.865 115.708 173.43 114.6L166.74 97.548C166.309 96.4388 165.651 95.4319 164.808 94.5916C163.966 93.7513 162.957 93.0962 161.847 92.6681C160.736 92.24 159.549 92.0484 158.36 92.1056C157.172 92.1627 156.008 92.4673 154.944 93ZM152.958 118.344C152 118.72 150.952 118.803 149.947 118.582C148.942 118.362 148.024 117.849 147.311 117.108C146.597 116.366 146.12 115.43 145.939 114.417C145.757 113.404 145.881 112.36 146.293 111.417C146.705 110.474 147.388 109.675 148.255 109.12C149.121 108.565 150.133 108.28 151.162 108.3C152.191 108.32 153.19 108.645 154.034 109.233C154.879 109.822 155.529 110.648 155.904 111.606C156.156 112.243 156.28 112.924 156.269 113.609C156.257 114.295 156.11 114.971 155.837 115.599C155.563 116.228 155.168 116.796 154.674 117.271C154.18 117.746 153.597 118.119 152.958 118.368V118.344Z" fill="#017BE0"/>
<path opacity="0.1" d="M173.43 114.6L166.74 97.548C166.309 96.4388 165.651 95.4319 164.808 94.5916C163.966 93.7513 162.957 93.0962 161.847 92.6681C160.736 92.24 159.549 92.0484 158.36 92.1056C157.172 92.1627 156.008 92.4673 154.944 93L151.458 94.8L149.118 96L142.95 99.102C141.058 100.056 139.588 101.679 138.826 103.656C138.064 105.633 138.065 107.823 138.828 109.8L144.6 124.56C145.379 126.543 146.869 128.164 148.78 129.106C150.691 130.048 152.885 130.244 154.932 129.654L167.838 125.934C168.859 125.639 169.816 125.155 170.658 124.506C171.29 124.03 171.85 123.464 172.32 122.826C173.191 121.663 173.75 120.297 173.944 118.857C174.139 117.418 173.962 115.952 173.43 114.6ZM152.958 118.356C152 118.73 150.953 118.812 149.949 118.591C148.945 118.371 148.029 117.858 147.316 117.117C146.604 116.376 146.126 115.44 145.945 114.428C145.764 113.416 145.886 112.373 146.297 111.431C146.708 110.489 147.389 109.689 148.254 109.134C149.119 108.578 150.129 108.291 151.157 108.309C152.185 108.327 153.184 108.649 154.029 109.235C154.874 109.821 155.526 110.644 155.904 111.6C156.157 112.238 156.282 112.919 156.271 113.605C156.26 114.291 156.113 114.968 155.839 115.597C155.565 116.226 155.17 116.795 154.675 117.27C154.181 117.746 153.597 118.119 152.958 118.368V118.356Z" fill="white"/>
<path d="M155.064 94.1524L143.814 99.8044C142.029 100.7 140.644 102.231 139.929 104.096C139.214 105.96 139.222 108.025 139.95 109.884L145.38 123.72C146.106 125.585 147.502 127.11 149.295 127.999C151.087 128.887 153.147 129.073 155.07 128.52L167.166 125.028C168.237 124.72 169.232 124.191 170.086 123.476C170.941 122.76 171.637 121.875 172.13 120.875C172.623 119.876 172.902 118.784 172.949 117.671C172.997 116.557 172.811 115.446 172.404 114.408L166.134 98.4004C165.728 97.3611 165.109 96.418 164.317 95.6315C163.526 94.8449 162.579 94.2321 161.537 93.8323C160.495 93.4325 159.381 93.2545 158.267 93.3096C157.152 93.3647 156.061 93.6518 155.064 94.1524ZM146.214 115.422C145.839 114.464 145.756 113.417 145.977 112.412C146.197 111.407 146.71 110.49 147.451 109.777C148.193 109.064 149.129 108.586 150.141 108.405C151.154 108.224 152.198 108.347 153.14 108.759C154.083 109.171 154.882 109.853 155.438 110.719C155.993 111.585 156.279 112.596 156.259 113.624C156.24 114.653 155.916 115.653 155.328 116.497C154.74 117.341 153.916 117.993 152.958 118.368C152.322 118.619 151.643 118.741 150.959 118.729C150.275 118.716 149.601 118.569 148.975 118.295C148.348 118.021 147.782 117.627 147.308 117.134C146.834 116.641 146.463 116.059 146.214 115.422Z" fill="#017BE0"/>
<path opacity="0.1" d="M155.064 94.1524L143.814 99.8044C142.029 100.7 140.644 102.231 139.929 104.096C139.214 105.96 139.222 108.025 139.95 109.884L145.38 123.72C146.106 125.585 147.502 127.11 149.295 127.999C151.087 128.887 153.147 129.073 155.07 128.52L167.166 125.028C168.237 124.72 169.232 124.191 170.086 123.476C170.941 122.76 171.637 121.875 172.13 120.875C172.623 119.876 172.902 118.784 172.949 117.671C172.997 116.557 172.811 115.446 172.404 114.408L166.134 98.4004C165.728 97.3611 165.109 96.418 164.317 95.6315C163.526 94.8449 162.579 94.2321 161.537 93.8323C160.495 93.4325 159.381 93.2545 158.267 93.3096C157.152 93.3647 156.061 93.6518 155.064 94.1524ZM146.214 115.422C145.839 114.464 145.756 113.417 145.977 112.412C146.197 111.407 146.71 110.49 147.451 109.777C148.193 109.064 149.129 108.586 150.141 108.405C151.154 108.224 152.198 108.347 153.14 108.759C154.083 109.171 154.882 109.853 155.438 110.719C155.993 111.585 156.279 112.596 156.259 113.624C156.24 114.653 155.916 115.653 155.328 116.497C154.74 117.341 153.916 117.993 152.958 118.368C152.322 118.619 151.643 118.741 150.959 118.729C150.275 118.716 149.601 118.569 148.975 118.295C148.348 118.021 147.782 117.627 147.308 117.134C146.834 116.641 146.463 116.059 146.214 115.422Z" fill="#017BE0"/>
<path d="M210.972 88.7999L210.63 89.3999L210.438 89.7479L209.892 90.7379L210.12 93.2759C210.132 93.3833 210.12 93.492 210.084 93.5939C210.047 93.7043 209.986 93.8054 209.907 93.8903C209.827 93.9752 209.73 94.042 209.622 94.0859L204.882 95.9399C204.774 95.9831 204.657 96.0012 204.54 95.9929C204.424 95.9846 204.311 95.9501 204.21 95.8919C204.143 95.8584 204.082 95.8137 204.03 95.7599L201.348 93.0299L197.532 94.5239L198.084 95.9339L194.274 97.4219L195.18 99.7439L192.378 100.842C192.266 100.885 192.146 100.905 192.026 100.898C191.906 100.892 191.789 100.861 191.682 100.806C191.609 100.771 191.542 100.724 191.484 100.668L189.87 99.1499L186.054 100.638L186.966 102.96L182.958 104.532L183.87 106.86C183.906 106.95 183.923 107.047 183.922 107.145C183.92 107.242 183.899 107.338 183.86 107.427C183.821 107.517 183.764 107.597 183.694 107.665C183.624 107.732 183.541 107.785 183.45 107.82L172.476 112.116L167.712 99.9659L207.42 84.4199L208.02 84.7379L210.03 85.7759C210.295 85.9075 210.531 86.0914 210.723 86.3167C210.915 86.542 211.06 86.8038 211.148 87.0865C211.236 87.3691 211.265 87.6667 211.235 87.9612C211.205 88.2557 211.115 88.541 210.972 88.7999Z" fill="#017BE0"/>
<g opacity="0.1">
<path d="M210.972 88.7999L210.63 89.3999L210.438 89.7479L209.892 90.7379L210.12 93.2759C210.132 93.3833 210.12 93.492 210.084 93.5939C210.047 93.7043 209.986 93.8054 209.907 93.8903C209.827 93.9752 209.73 94.042 209.622 94.0859L204.882 95.9399C204.774 95.9831 204.657 96.0012 204.54 95.9929C204.424 95.9846 204.311 95.9501 204.21 95.8919C204.143 95.8584 204.082 95.8137 204.03 95.7599L201.348 93.0299L197.532 94.5239L198.084 95.9339L194.274 97.4219L195.18 99.7439L192.378 100.842C192.266 100.885 192.146 100.905 192.026 100.898C191.906 100.892 191.789 100.861 191.682 100.806C191.609 100.771 191.542 100.724 191.484 100.668L189.87 99.1499L186.054 100.638L186.966 102.96L182.958 104.532L183.87 106.86C183.906 106.95 183.923 107.047 183.922 107.145C183.92 107.242 183.899 107.338 183.86 107.427C183.821 107.517 183.764 107.597 183.694 107.665C183.624 107.732 183.541 107.785 183.45 107.82L172.476 112.116L167.712 99.9659L207.42 84.4199L208.02 84.7379L210.03 85.7759C210.295 85.9075 210.531 86.0914 210.723 86.3167C210.915 86.542 211.06 86.8038 211.148 87.0865C211.236 87.3691 211.265 87.6667 211.235 87.9612C211.205 88.2557 211.115 88.541 210.972 88.7999Z" fill="white"/>
</g>
<path d="M210.816 87.4319L168.36 104.052L167.124 100.932L207.6 85.0859L209.616 86.1179C210.384 86.5139 210.822 86.8799 210.816 87.4319Z" fill="#017BE0"/>
<path opacity="0.1" d="M210.816 87.4319L168.36 104.052L167.124 100.932L207.6 85.0859L209.616 86.1179C210.384 86.5139 210.822 86.8799 210.816 87.4319Z" fill="black"/>
<path d="M210 89.7723L209.592 90.6963C209.589 90.7121 209.589 90.7284 209.592 90.7443L209.826 93.2523C209.841 93.3416 209.841 93.4329 209.826 93.5223C209.822 93.5373 209.814 93.5512 209.804 93.5627C209.794 93.5742 209.781 93.5829 209.766 93.5883L204.612 95.6163C204.599 95.6236 204.585 95.6275 204.57 95.6275C204.555 95.6275 204.541 95.6236 204.528 95.6163C204.476 95.5854 204.43 95.5469 204.39 95.5023L201.438 92.5383C201.423 92.5279 201.405 92.5224 201.387 92.5224C201.369 92.5224 201.351 92.5279 201.336 92.5383L197.136 94.1823C197.113 94.1928 197.095 94.2116 197.085 94.2348C197.075 94.2581 197.074 94.2843 197.082 94.3083L197.58 95.5743C197.585 95.5861 197.587 95.5987 197.587 95.6115C197.587 95.6242 197.584 95.6369 197.579 95.6486C197.574 95.6603 197.567 95.671 197.558 95.6798C197.549 95.6887 197.538 95.6956 197.526 95.7003L193.956 97.1043C193.944 97.1089 193.933 97.1158 193.924 97.1247C193.915 97.1336 193.907 97.1442 193.902 97.1559C193.897 97.1677 193.895 97.1803 193.895 97.193C193.895 97.2058 193.897 97.2185 193.902 97.2303L194.76 99.4083C194.766 99.4199 194.769 99.4327 194.769 99.4458C194.77 99.4588 194.767 99.4718 194.762 99.4837C194.757 99.4957 194.749 99.5065 194.74 99.5152C194.73 99.5239 194.718 99.5304 194.706 99.5343L192.09 100.566C192.077 100.574 192.063 100.578 192.048 100.578C192.033 100.578 192.019 100.574 192.006 100.566C191.951 100.535 191.901 100.497 191.856 100.452L189.936 98.6883C189.921 98.6798 189.905 98.6754 189.888 98.6754C189.871 98.6754 189.855 98.6798 189.84 98.6883L185.682 100.326C185.669 100.33 185.658 100.337 185.648 100.345C185.639 100.354 185.631 100.365 185.626 100.377C185.621 100.389 185.618 100.402 185.619 100.415C185.619 100.428 185.622 100.441 185.628 100.452L186.504 102.684C186.51 102.696 186.513 102.709 186.513 102.722C186.514 102.735 186.511 102.748 186.506 102.76C186.501 102.772 186.493 102.782 186.484 102.791C186.474 102.8 186.462 102.806 186.45 102.81L170.484 109.092C170.461 109.1 170.436 109.099 170.413 109.089C170.391 109.079 170.373 109.061 170.364 109.038L168.72 105C168.712 104.976 168.713 104.95 168.723 104.927C168.733 104.904 168.751 104.885 168.774 104.874L210.378 88.5003C210.396 88.4935 210.416 88.4923 210.434 88.4968C210.453 88.5013 210.47 88.5114 210.483 88.5256C210.496 88.5398 210.504 88.5576 210.507 88.5766C210.509 88.5956 210.506 88.615 210.498 88.6323L210 89.7723Z" fill="#017BE0"/>
<path opacity="0.1" d="M210 89.7723L209.592 90.6963C209.589 90.7121 209.589 90.7284 209.592 90.7443L209.826 93.2523C209.841 93.3416 209.841 93.4329 209.826 93.5223C209.822 93.5373 209.814 93.5512 209.804 93.5627C209.794 93.5742 209.781 93.5829 209.766 93.5883L204.612 95.6163C204.599 95.6236 204.585 95.6275 204.57 95.6275C204.555 95.6275 204.541 95.6236 204.528 95.6163C204.476 95.5854 204.43 95.5469 204.39 95.5023L201.438 92.5383C201.423 92.5279 201.405 92.5224 201.387 92.5224C201.369 92.5224 201.351 92.5279 201.336 92.5383L197.136 94.1823C197.113 94.1928 197.095 94.2116 197.085 94.2348C197.075 94.2581 197.074 94.2843 197.082 94.3083L197.58 95.5743C197.585 95.5861 197.587 95.5987 197.587 95.6115C197.587 95.6242 197.584 95.6369 197.579 95.6486C197.574 95.6603 197.567 95.671 197.558 95.6798C197.549 95.6887 197.538 95.6956 197.526 95.7003L193.956 97.1043C193.944 97.1089 193.933 97.1158 193.924 97.1247C193.915 97.1336 193.907 97.1442 193.902 97.1559C193.897 97.1677 193.895 97.1803 193.895 97.193C193.895 97.2058 193.897 97.2185 193.902 97.2303L194.76 99.4083C194.766 99.4199 194.769 99.4327 194.769 99.4458C194.77 99.4588 194.767 99.4718 194.762 99.4837C194.757 99.4957 194.749 99.5065 194.74 99.5152C194.73 99.5239 194.718 99.5304 194.706 99.5343L192.09 100.566C192.077 100.574 192.063 100.578 192.048 100.578C192.033 100.578 192.019 100.574 192.006 100.566C191.951 100.535 191.901 100.497 191.856 100.452L189.936 98.6883C189.921 98.6798 189.905 98.6754 189.888 98.6754C189.871 98.6754 189.855 98.6798 189.84 98.6883L185.682 100.326C185.669 100.33 185.658 100.337 185.648 100.345C185.639 100.354 185.631 100.365 185.626 100.377C185.621 100.389 185.618 100.402 185.619 100.415C185.619 100.428 185.622 100.441 185.628 100.452L186.504 102.684C186.51 102.696 186.513 102.709 186.513 102.722C186.514 102.735 186.511 102.748 186.506 102.76C186.501 102.772 186.493 102.782 186.484 102.791C186.474 102.8 186.462 102.806 186.45 102.81L170.484 109.092C170.461 109.1 170.436 109.099 170.413 109.089C170.391 109.079 170.373 109.061 170.364 109.038L168.72 105C168.712 104.976 168.713 104.95 168.723 104.927C168.733 104.904 168.751 104.885 168.774 104.874L210.378 88.5003C210.396 88.4935 210.416 88.4923 210.434 88.4968C210.453 88.5013 210.47 88.5114 210.483 88.5256C210.496 88.5398 210.504 88.5576 210.507 88.5766C210.509 88.5956 210.506 88.615 210.498 88.6323L210 89.7723Z" fill="black"/>
<path opacity="0.3" d="M148.842 107.4C147.642 107.871 146.608 108.688 145.872 109.747C145.136 110.806 144.731 112.059 144.706 113.348C144.682 114.637 145.041 115.904 145.737 116.99C146.433 118.075 147.435 118.93 148.616 119.446C149.798 119.963 151.106 120.117 152.375 119.89C153.644 119.663 154.818 119.065 155.748 118.171C156.677 117.278 157.321 116.129 157.597 114.869C157.874 113.61 157.771 112.297 157.302 111.096C156.991 110.296 156.525 109.566 155.931 108.947C155.337 108.328 154.627 107.832 153.84 107.489C153.054 107.145 152.208 106.961 151.35 106.945C150.492 106.93 149.64 107.085 148.842 107.4ZM152.958 118.38C152 118.755 150.952 118.838 149.947 118.618C148.941 118.398 148.024 117.885 147.311 117.143C146.597 116.402 146.12 115.465 145.939 114.452C145.757 113.44 145.881 112.396 146.293 111.453C146.705 110.51 147.388 109.71 148.254 109.156C149.121 108.601 150.133 108.315 151.162 108.336C152.19 108.356 153.19 108.681 154.034 109.269C154.878 109.858 155.529 110.683 155.904 111.642C156.402 112.925 156.372 114.353 155.82 115.613C155.268 116.874 154.239 117.864 152.958 118.368V118.38Z" fill="white"/>
<path opacity="0.1" d="M172.326 122.82C171.859 123.458 171.301 124.024 170.67 124.5L149.112 95.9461C149.112 95.9461 151.014 94.9921 151.446 94.7041C151.449 94.7359 151.46 94.7666 151.476 94.7941C152.4 96.7921 169.344 118.8 172.326 122.82Z" fill="white"/>
<path opacity="0.1" d="M169.2 125.4C169.068 125.46 162.786 127.374 162.786 127.374L155.784 118.104C156.841 117.048 157.503 115.661 157.659 114.175C157.816 112.69 157.458 111.195 156.645 109.942C155.832 108.688 154.614 107.752 153.194 107.289C151.773 106.827 150.237 106.866 148.842 107.4C148.552 107.508 148.273 107.643 148.008 107.802L141.816 99.5996C141.816 99.5996 147.258 97.0076 147.858 96.5996C148.02 97.7576 169.2 125.16 169.2 125.4Z" fill="white"/>
<path d="M143.514 80.3643C143.162 80.782 142.91 81.2749 142.779 81.8051C142.647 82.3352 142.639 82.8885 142.755 83.4223C142.871 83.9561 143.108 84.4562 143.447 84.8841C143.787 85.3119 144.22 85.6562 144.714 85.8903C145.23 86.1303 145.794 86.2443 146.298 86.4903C146.561 86.5964 146.793 86.7668 146.973 86.9859C147.154 87.2049 147.276 87.4657 147.33 87.7443C147.39 88.3443 146.928 88.9443 146.976 89.5443C147.027 89.8252 147.137 90.0923 147.297 90.3288C147.457 90.5653 147.664 90.766 147.906 90.9183C148.392 91.222 148.802 91.6323 149.106 92.1183C149.174 92.2417 149.216 92.3778 149.229 92.5182C149.243 92.6586 149.227 92.8002 149.183 92.9342C149.139 93.0682 149.068 93.1917 148.974 93.297C148.88 93.4023 148.766 93.4872 148.638 93.5463C148.573 93.6607 148.539 93.7898 148.539 93.9213C148.539 94.0527 148.573 94.1819 148.638 94.2963C148.715 94.3742 148.816 94.4243 148.924 94.4384C149.033 94.4525 149.143 94.4299 149.238 94.3743C149.664 94.1076 150.019 93.7397 150.269 93.3032C150.519 92.8667 150.657 92.3752 150.672 91.8723C150.666 91.3739 150.52 90.8873 150.251 90.4681C149.981 90.0489 149.599 89.7142 149.148 89.5023C149.091 89.3227 149.07 89.1335 149.088 88.9459C149.105 88.7583 149.16 88.5761 149.25 88.4103C149.52 87.7263 149.796 87.0363 150.072 86.3523C150.116 86.1845 150.124 86.0091 150.094 85.8382C150.063 85.6672 149.997 85.5049 149.898 85.3623C149.693 85.1563 149.445 84.9985 149.172 84.9003L147.402 84.1443C146.736 83.8563 144.75 81.2043 147.102 80.4303C146.96 80.13 146.739 79.8748 146.461 79.6927C146.184 79.5105 145.862 79.4087 145.53 79.3983C145.14 79.3794 144.752 79.4578 144.4 79.6264C144.048 79.7951 143.743 80.0486 143.514 80.3643Z" fill="#263238"/>
<path d="M146.724 77.5077L146.544 79.6017C147.144 78.6417 148.218 76.7757 148.182 76.8477C147.72 77.0997 147.186 77.2557 146.724 77.5077Z" fill="#263238"/>
<path d="M147.516 78.6544L149.976 76.3804C149.656 76.2695 149.311 76.2512 148.981 76.3276C148.651 76.4041 148.349 76.5721 148.11 76.8124C148.128 76.7584 147.744 77.9224 147.516 78.6544Z" fill="#263238"/>
<path d="M142.518 135.42C139.32 139.392 140.382 142.434 135.966 149.466C141.54 153.594 147.648 154.266 155.238 153.666C156.138 152.076 156.588 150.42 157.488 148.83C158.772 150.426 159.804 151.764 161.088 153.366C165.066 152.766 169.794 151.62 172.938 149.592C170.16 146.406 168.432 142.428 166.656 138.918C165.822 137.268 166.17 136.578 163.956 134.418C156.906 134.742 149.916 134.91 142.872 135.24C143.064 135.27 142.332 135.408 142.518 135.42Z" fill="#263238"/>
<path d="M143.4 134.754L142.962 136.608C142.896 136.758 143.07 136.896 143.304 136.878L162.738 136.02C162.812 136.029 162.887 136.012 162.949 135.971C163.012 135.931 163.058 135.869 163.08 135.798L163.182 133.956C163.182 133.836 163.02 133.728 162.816 133.746L143.73 134.586C143.665 134.583 143.601 134.598 143.543 134.627C143.485 134.656 143.436 134.7 143.4 134.754Z" fill="#017BE0"/>
<path d="M143.4 134.754L142.962 136.608C142.896 136.758 143.07 136.896 143.304 136.878L162.738 136.02C162.812 136.029 162.887 136.012 162.949 135.971C163.012 135.931 163.058 135.869 163.08 135.798L163.182 133.956C163.182 133.836 163.02 133.728 162.816 133.746L143.73 134.586C143.665 134.583 143.601 134.598 143.543 134.627C143.485 134.656 143.436 134.7 143.4 134.754Z" fill="#FF5900"/>
<path d="M147.678 136.884H147.114C147.006 136.884 146.916 136.836 146.922 136.77L147.072 134.37C147.072 134.298 147.174 134.238 147.282 134.238L147.852 134.208C147.954 134.208 148.044 134.256 148.038 134.328L147.888 136.728C147.882 136.8 147.786 136.878 147.678 136.884Z" fill="#263238"/>
<path d="M161.706 136.278H161.142C161.034 136.278 160.944 136.23 160.95 136.164L161.1 133.764C161.1 133.692 161.202 133.626 161.31 133.626H161.874C161.982 133.626 162.066 133.674 162.06 133.74L161.91 136.14C161.91 136.2 161.82 136.272 161.706 136.278Z" fill="#263238"/>
<path d="M150.186 125.232C150.222 125.406 151.728 127.806 152.916 127.632C153.085 127.608 153.257 127.63 153.415 127.694C153.573 127.758 153.711 127.863 153.816 127.998C154.29 128.598 154.578 128.97 154.896 129.378C155.148 129.7 155.502 129.926 155.9 130.02C156.299 130.114 156.717 130.069 157.086 129.894C157.308 129.792 157.53 129.678 157.752 129.558C158.11 129.37 158.395 129.068 158.561 128.699C158.726 128.33 158.763 127.916 158.664 127.524C158.444 126.639 158.103 125.789 157.65 124.998C157.516 124.716 157.309 124.475 157.05 124.302C155.803 123.825 154.497 123.518 153.168 123.39C152.148 123.432 151.152 124.8 150.186 125.232Z" fill="#FFBF84"/>
<path d="M153.228 123.318C153.228 123.318 137.28 118.488 133.836 121.704C131.814 123.594 132.768 125.382 133.902 126.504C134.742 127.362 136.572 127.152 137.772 127.104L150.336 125.868L153.228 123.318Z" fill="#FFBF84"/>
<path d="M144.06 121.11C143.988 120.681 143.811 120.276 143.544 119.933C143.277 119.589 142.928 119.318 142.53 119.142C141.731 118.804 140.881 118.601 140.016 118.542L134.016 117.78C132.938 119.11 132.332 120.761 132.294 122.472C132.336 124.128 132.942 125.719 134.01 126.984C134.97 125.13 136.236 123.222 138.108 122.298C139.98 121.374 142.008 120.738 144.06 121.11Z" fill="#263238"/>
<path opacity="0.1" d="M139.95 91.9799C139.95 91.9439 139.95 91.9259 139.95 91.9199C140.076 91.8839 140.058 91.9079 139.95 91.9799Z" fill="white"/>
</svg>
