<svg width="16" height="16" viewBox="0 0 16 16" fill="none" xmlns="http://www.w3.org/2000/svg">
<g clip-path="url(#clip0_544_96)">
<path d="M5.42105 1H1.73684C1.32989 1 1 1.3299 1 1.73684V5.42106C1 5.828 1.32989 6.1579 1.73684 6.1579H5.42105C5.82799 6.1579 6.15789 5.828 6.15789 5.42106V1.73684C6.15789 1.3299 5.82799 1 5.42105 1Z" stroke="white" stroke-width="2"/>
<path d="M5.42105 9.10547H1.73684C1.32989 9.10547 1 9.43536 1 9.84231V13.5265C1 13.9335 1.32989 14.2634 1.73684 14.2634H5.42105C5.82799 14.2634 6.15789 13.9335 6.15789 13.5265V9.84231C6.15789 9.43536 5.82799 9.10547 5.42105 9.10547Z" stroke="white" stroke-width="2"/>
<path d="M13.5265 1H9.84231C9.43536 1 9.10547 1.3299 9.10547 1.73684V5.42106C9.10547 5.828 9.43536 6.1579 9.84231 6.1579H13.5265C13.9335 6.1579 14.2634 5.828 14.2634 5.42106V1.73684C14.2634 1.3299 13.9335 1 13.5265 1Z" stroke="white" stroke-width="2"/>
<path d="M10.2103 8.36816H8.73658C8.53311 8.36816 8.36816 8.53311 8.36816 8.73659V10.2103C8.36816 10.4137 8.53311 10.5787 8.73658 10.5787H10.2103C10.4137 10.5787 10.5787 10.4137 10.5787 10.2103V8.73659C10.5787 8.53311 10.4137 8.36816 10.2103 8.36816Z" fill="white"/>
<path d="M12.4212 10.5791H10.9475C10.744 10.5791 10.5791 10.744 10.5791 10.9475V12.4212C10.5791 12.6247 10.744 12.7896 10.9475 12.7896H12.4212C12.6247 12.7896 12.7896 12.6247 12.7896 12.4212V10.9475C12.7896 10.744 12.6247 10.5791 12.4212 10.5791Z" fill="white"/>
<path d="M14.6317 8.36816H13.158C12.9545 8.36816 12.7896 8.53311 12.7896 8.73659V10.2103C12.7896 10.4137 12.9545 10.5787 13.158 10.5787H14.6317C14.8351 10.5787 15.0001 10.4137 15.0001 10.2103V8.73659C15.0001 8.53311 14.8351 8.36816 14.6317 8.36816Z" fill="white"/>
<path d="M14.6317 12.7896H13.158C12.9545 12.7896 12.7896 12.9545 12.7896 13.158V14.6317C12.7896 14.8351 12.9545 15.0001 13.158 15.0001H14.6317C14.8351 15.0001 15.0001 14.8351 15.0001 14.6317V13.158C15.0001 12.9545 14.8351 12.7896 14.6317 12.7896Z" fill="white"/>
<path d="M10.2103 12.7896H8.73658C8.53311 12.7896 8.36816 12.9545 8.36816 13.158V14.6317C8.36816 14.8351 8.53311 15.0001 8.73658 15.0001H10.2103C10.4137 15.0001 10.5787 14.8351 10.5787 14.6317V13.158C10.5787 12.9545 10.4137 12.7896 10.2103 12.7896Z" fill="white"/>
</g>
<defs>
<clipPath id="clip0_544_96">
<rect width="16" height="16" fill="white"/>
</clipPath>
</defs>
</svg>
