<svg width="300" height="300" viewBox="0 0 300 300" fill="none" xmlns="http://www.w3.org/2000/svg">
<path d="M150.396 75.9721C194.604 65.8621 229.764 102.054 233.466 131.34C238.524 171.366 179.208 203.85 134.586 213.024C87.5639 222.69 57.8759 197.748 59.8619 160.998C61.4819 131.07 112.506 84.6421 150.396 75.9721Z" fill="#017BE0"/>
<path opacity="0.9" d="M150.396 75.9721C194.604 65.8621 229.764 102.054 233.466 131.34C238.524 171.366 179.208 203.85 134.586 213.024C87.5639 222.69 57.8759 197.748 59.8619 160.998C61.4819 131.07 112.506 84.6421 150.396 75.9721Z" fill="white"/>
<path opacity="0.2" d="M161.754 192.438C161.754 192.438 117.66 218.472 117.66 243.138H205.86C205.854 218.472 161.754 192.438 161.754 192.438Z" fill="#017BE0"/>
<path opacity="0.2" d="M161.754 223.5C161.754 223.5 121.038 233.586 121.038 243.138H202.47C202.47 233.586 161.754 223.5 161.754 223.5Z" fill="#017BE0"/>
<path opacity="0.3" d="M167.106 199.626C175.386 207.768 191.478 225.81 191.478 243.138H180.444C180.444 225.81 171.636 207.768 167.106 199.626Z" fill="white"/>
<path opacity="0.2" d="M161.754 192.438C161.754 192.438 117.66 166.404 117.66 141.738H205.86C205.854 166.404 161.754 192.438 161.754 192.438Z" fill="#017BE0"/>
<path opacity="0.2" d="M161.754 190.062C161.754 190.062 139.242 179.262 139.242 169.002H184.272C184.272 179.244 161.754 190.062 161.754 190.062Z" fill="#017BE0"/>
<path opacity="0.3" d="M156.948 185.25C148.674 177.108 132.6 159.066 132.6 141.738H143.634C143.61 159.066 152.4 177.108 156.948 185.25Z" fill="white"/>
<path opacity="0.3" d="M167.106 185.25C175.386 177.108 191.076 156.978 191.478 141.738H188.538C187.158 160.32 173.658 177.372 167.106 185.25Z" fill="white"/>
<path d="M199.866 133.032H194.868V133.632H199.866V133.032Z" fill="#017BE0"/>
<path d="M216.834 141.276H216.234C216.232 139.25 215.427 137.308 213.995 135.875C212.563 134.442 210.622 133.635 208.596 133.632H203.322V133.032H208.596C210.78 133.037 212.874 133.907 214.418 135.452C215.962 136.998 216.831 139.092 216.834 141.276Z" fill="#017BE0"/>
<path d="M208.59 135.132H114.918C111.525 135.132 108.774 137.883 108.774 141.276V142.2C108.774 145.594 111.525 148.344 114.918 148.344H208.59C211.983 148.344 214.734 145.594 214.734 142.2V141.276C214.734 137.883 211.983 135.132 208.59 135.132Z" fill="#017BE0"/>
<path d="M208.59 236.532H114.918C111.525 236.532 108.774 239.283 108.774 242.676V243.6C108.774 246.993 111.525 249.744 114.918 249.744H208.59C211.983 249.744 214.734 246.993 214.734 243.6V242.676C214.734 239.283 211.983 236.532 208.59 236.532Z" fill="#017BE0"/>
<path d="M84.4318 182.712L80.3638 179.1L87.2998 168.45L91.3678 172.056L84.4318 182.712Z" fill="#FFBF84"/>
<path d="M81.2038 176.808L86.3758 180.408C86.42 180.436 86.4583 180.472 86.4885 180.514C86.5187 180.556 86.5403 180.604 86.552 180.655C86.5637 180.706 86.5653 180.758 86.5567 180.81C86.5481 180.861 86.5294 180.91 86.5018 180.954L83.9098 185.226C83.7606 185.441 83.5328 185.588 83.2757 185.637C83.0186 185.685 82.7529 185.63 82.5358 185.484C80.7358 184.206 80.0698 183.582 77.9158 181.842C75.7869 180.169 73.7442 178.389 71.7958 176.508C70.1998 174.852 71.8858 173.25 72.7318 173.82C74.7298 175.176 78.2038 176.67 80.2138 176.55C80.5635 176.522 80.9122 176.613 81.2038 176.808Z" fill="#263238"/>
<path opacity="0.2" d="M91.362 172.062L87.294 168.45L83.958 173.58L88.128 177.042L91.362 172.062Z" fill="black"/>
<path d="M132.75 118.86C132.75 118.86 105.45 116.994 102.066 126.246C94.368 147.282 84.354 169.596 84.354 169.596L92.4 175.422C92.4 175.422 109.41 149.412 114.6 132.714C125.1 135.264 144.084 137.442 150.198 130.422C155.418 124.422 151.512 118.86 151.512 118.86H132.75Z" fill="#FF5900"/>
<path opacity="0.3" d="M109.368 135.21C108.732 137.778 107.766 145.134 107.166 150.012C108.492 147.444 109.752 144.84 110.886 142.296L109.368 135.21Z" fill="black"/>
<path d="M91.8838 178.056L82.7578 170.904L84.6238 166.896L94.8238 174.69L91.8838 178.056Z" fill="#DA4C00"/>
<path d="M79.014 176.478C79.4371 176.754 79.8875 176.985 80.358 177.168C80.3814 177.176 80.4067 177.178 80.4308 177.172C80.455 177.167 80.4771 177.154 80.4947 177.137C80.5122 177.119 80.5244 177.097 80.53 177.073C80.5355 177.049 80.5341 177.024 80.526 177C80.448 176.796 79.764 175.002 79.05 174.828C78.9681 174.809 78.8828 174.812 78.802 174.835C78.7213 174.858 78.6476 174.901 78.588 174.96C78.4876 175.04 78.4099 175.144 78.3625 175.263C78.3151 175.382 78.2998 175.511 78.318 175.638C78.4394 175.994 78.687 176.293 79.014 176.478ZM80.172 176.808C79.23 176.4 78.642 175.95 78.576 175.608C78.5657 175.525 78.578 175.44 78.6118 175.363C78.6456 175.286 78.6996 175.219 78.768 175.17C78.7957 175.14 78.831 175.119 78.87 175.107C78.909 175.095 78.9505 175.094 78.99 175.104C79.374 175.2 79.872 176.094 80.172 176.808Z" fill="#FF5900"/>
<path d="M80.3276 177.15C80.3472 177.156 80.368 177.156 80.3876 177.15C80.41 177.153 80.4327 177.15 80.4536 177.141C80.4745 177.133 80.4931 177.119 80.5076 177.102C80.5496 177.054 81.5696 175.8 81.4196 175.026C81.3999 174.927 81.3577 174.834 81.2963 174.754C81.2349 174.674 81.156 174.609 81.0656 174.564C80.9735 174.507 80.8649 174.481 80.7565 174.49C80.6482 174.5 80.546 174.545 80.4656 174.618C80.0096 175.044 80.0276 176.484 80.2976 177.078C80.3016 177.104 80.3119 177.129 80.3276 177.15ZM80.9936 174.852C81.037 174.881 81.0742 174.918 81.1031 174.961C81.1319 175.005 81.1519 175.053 81.1616 175.104C81.2516 175.56 80.7656 176.346 80.4476 176.778C80.2796 176.178 80.3336 175.11 80.6276 174.834C80.6876 174.78 80.7716 174.726 80.9456 174.834L80.9936 174.852Z" fill="#FF5900"/>
<path d="M120.3 189.006L115.05 190.056L114.078 175.998L119.412 176.166L120.3 189.006Z" fill="#FFBF84"/>
<path d="M114.336 188.136L120.336 185.61C120.385 185.586 120.438 185.572 120.493 185.569C120.548 185.566 120.602 185.574 120.654 185.592C120.705 185.611 120.752 185.639 120.793 185.677C120.833 185.714 120.865 185.758 120.888 185.808L123.18 190.416C123.285 190.666 123.287 190.946 123.188 191.197C123.088 191.449 122.893 191.651 122.646 191.76C120.546 192.606 119.502 192.9 116.868 194.016C115.248 194.7 110.868 196.68 108.528 197.262C106.188 197.844 105.66 195.498 106.608 195.042C108.852 193.962 112.572 190.668 113.574 188.85C113.744 188.537 114.012 188.286 114.336 188.136Z" fill="#263238"/>
<path d="M112.842 189.864C113.314 189.648 113.763 189.383 114.18 189.072C114.2 189.056 114.216 189.035 114.226 189.011C114.235 188.986 114.238 188.96 114.234 188.934C114.227 188.909 114.213 188.886 114.194 188.868C114.175 188.85 114.151 188.838 114.126 188.832C113.91 188.784 111.966 188.394 111.42 188.922C111.358 188.983 111.312 189.058 111.288 189.141C111.264 189.224 111.262 189.312 111.282 189.396C111.295 189.526 111.343 189.65 111.42 189.755C111.497 189.861 111.6 189.944 111.72 189.996C112.097 190.093 112.497 190.046 112.842 189.864ZM113.76 189.036C112.89 189.636 112.176 189.894 111.822 189.756C111.743 189.72 111.675 189.663 111.627 189.591C111.578 189.519 111.55 189.435 111.546 189.348C111.534 189.307 111.534 189.264 111.544 189.223C111.555 189.182 111.576 189.145 111.606 189.114C111.9 188.832 112.98 188.904 113.76 189.036Z" fill="#FF5900"/>
<path d="M114.15 189.09C114.17 189.08 114.189 189.066 114.204 189.048C114.214 189.029 114.219 189.007 114.219 188.985C114.219 188.963 114.214 188.942 114.204 188.922C114.204 188.856 113.652 187.272 112.896 186.978C112.799 186.94 112.694 186.924 112.589 186.934C112.485 186.943 112.385 186.977 112.296 187.032C112.191 187.079 112.105 187.161 112.052 187.263C112 187.366 111.984 187.484 112.008 187.596C112.128 188.196 113.394 189.006 114.06 189.096C114.089 189.106 114.122 189.104 114.15 189.09ZM112.512 187.236C112.561 187.216 112.614 187.205 112.668 187.205C112.721 187.205 112.774 187.216 112.824 187.236C113.274 187.41 113.688 188.268 113.892 188.784C113.292 188.586 112.374 187.968 112.296 187.548C112.296 187.47 112.296 187.368 112.458 187.272L112.512 187.236Z" fill="#FF5900"/>
<path opacity="0.2" d="M119.418 176.172L114.078 175.998L114.588 183.342L119.904 183.246L119.418 176.172Z" fill="black"/>
<path d="M146.01 118.86C146.01 118.86 107.01 122.55 108.414 134.292C110.466 151.23 111.966 180.888 111.966 180.888L121.908 181.278C121.908 181.278 125.64 155.202 123.456 137.856C133.554 137.856 155.49 138.39 159.348 133.17C163.926 126.978 161.808 118.86 161.808 118.86H146.01Z" fill="#FF5900"/>
<path d="M123.006 181.89L111.072 181.296L110.646 176.106L123.732 177.006L123.006 181.89Z" fill="#DA4C00"/>
<path d="M137.352 84.4745C137.268 85.5485 137.172 86.5025 137.04 87.5045C136.908 88.5065 136.782 89.4845 136.626 90.4745C136.338 92.4485 135.942 94.4105 135.498 96.3845C135.054 98.3585 134.508 100.326 133.824 102.312C133.129 104.402 132.218 106.413 131.106 108.312C130.442 109.43 129.635 110.457 128.706 111.366C128.46 111.596 128.202 111.813 127.932 112.014C127.686 112.218 127.44 112.392 127.188 112.566C126.708 112.905 126.209 113.215 125.694 113.496C123.791 114.532 121.779 115.351 119.694 115.938C118.704 116.244 117.708 116.49 116.694 116.712C115.68 116.934 114.714 117.126 113.694 117.282C111.708 117.607 109.704 117.808 107.694 117.882C107.198 117.903 106.712 117.744 106.324 117.434C105.937 117.124 105.675 116.684 105.588 116.196C105.5 115.707 105.592 115.204 105.847 114.778C106.102 114.352 106.502 114.034 106.974 113.88L107.052 113.85C110.57 112.737 114.022 111.423 117.39 109.914C118.938 109.214 120.42 108.374 121.818 107.406C122.136 107.178 122.418 106.944 122.706 106.71C122.838 106.596 122.976 106.482 123.09 106.362C123.196 106.267 123.296 106.165 123.39 106.056C123.788 105.575 124.13 105.049 124.41 104.49C125.138 103.012 125.723 101.467 126.156 99.8765C126.642 98.1905 127.062 96.4325 127.41 94.6445C127.758 92.8565 128.07 91.0445 128.364 89.2085C128.658 87.3725 128.88 85.5005 129.084 83.7605V83.6585C129.234 82.6063 129.785 81.6529 130.621 80.9971C131.458 80.3414 132.515 80.0341 133.573 80.1394C134.63 80.2447 135.607 80.7545 136.297 81.5622C136.988 82.37 137.34 83.4133 137.28 84.4745H137.352Z" fill="#263238"/>
<path d="M107.892 112.8L104.892 112.986L107.292 118.506C107.292 118.506 112.482 118.392 112.374 115.836L111.438 114.636C111.009 114.098 110.472 113.656 109.861 113.339C109.25 113.023 108.579 112.839 107.892 112.8Z" fill="#FFBF84"/>
<path d="M101.604 113.442L104.196 118.518H107.286L104.886 112.998L101.604 113.442Z" fill="#FFBF84"/>
<path d="M136.92 75.9665L142.722 74.7665L147.342 74.1005C148.002 73.9926 148.673 73.9624 149.34 74.0105C151.113 74.1713 152.794 74.8692 154.16 76.011C155.526 77.1527 156.511 78.6841 156.984 80.4005C158.142 84.6005 159.186 89.7545 159.984 94.3205C161.1 100.662 161.676 110.19 161.784 118.854H134.298C133.698 103.164 130.362 93.0545 129.228 86.7845C128.886 84.8916 129.176 82.9389 130.053 81.227C130.93 79.5151 132.346 78.139 134.082 77.3105L136.92 75.9665Z" fill="#263238"/>
<path d="M134.298 79.4161C134.364 81.9961 134.898 91.1941 137.664 96.4201C138.15 91.5241 143.964 76.6201 143.964 76.6201L134.298 79.4161Z" fill="#F5F5F5"/>
<path opacity="0.3" d="M160.614 98.6284C160.614 98.5324 160.614 98.4424 160.578 98.3404L160.524 97.9084C160.494 97.6744 160.464 97.4404 160.434 97.2184L160.344 96.5764L160.254 95.9764C160.254 95.8084 160.2 95.6344 160.176 95.4724C160.116 95.0884 160.056 94.7164 159.99 94.3504C159.792 93.2284 159.582 92.0644 159.354 90.8944V90.7984C159.126 89.5984 158.892 88.4404 158.64 87.2704V87.1924C158.538 86.6884 158.43 86.1964 158.316 85.6984L158.19 85.1464L157.974 84.1924L157.794 83.4484L157.758 83.2924C157.518 82.3084 157.272 81.3424 157.02 80.4304L152.85 78.2344C153.33 80.0764 153.786 82.1044 154.218 84.1804C153.719 84.4415 153.258 84.7707 152.85 85.1584C151.854 86.0464 151.89 87.9364 152.886 90.1744C155.643 96.5739 157.17 103.436 157.386 110.4C157.512 113.226 157.59 116.088 157.626 118.866H161.826C161.706 111.984 161.322 104.568 160.614 98.6284Z" fill="black"/>
<path d="M140.562 64.4043L138.204 68.0043L135 72.8943C135.412 73.3144 135.748 73.8039 135.99 74.3403C136.59 75.5403 137.058 76.4043 134.58 78.0903C134.052 78.4503 134.034 79.0203 134.154 79.6503C134.298 80.4183 134.754 81.2223 137.418 80.7483C139.993 80.253 142.342 78.95 144.126 77.0283C145.014 76.1343 144.81 75.4683 143.952 74.5443C141.528 71.9343 140.802 67.7643 140.562 64.4043Z" fill="#FFBF84"/>
<path d="M134.898 80.8384L136.596 81.9064L139.356 80.7364C138.705 80.0797 137.867 79.6415 136.956 79.4824C136.163 79.7456 135.453 80.2133 134.898 80.8384Z" fill="#FF5900"/>
<path d="M136.926 79.4824C138.192 80.0044 138.828 81.1804 139.404 82.5364C139.404 82.5364 145.47 77.9404 145.596 74.9104C145.272 73.8784 143.754 74.0584 143.754 74.0584C143.754 74.0584 141.906 77.2624 136.926 79.4824Z" fill="white"/>
<path d="M136.926 79.4823C136.334 79.7216 135.832 80.1389 135.488 80.6763C135.144 81.2138 134.975 81.8449 135.006 82.4823C135.006 82.4823 132.306 79.3143 134.502 76.9203C135.097 76.6077 135.731 76.3718 136.386 76.2183C136.386 76.2183 135.726 77.5383 136.926 79.4823Z" fill="white"/>
<path d="M137.13 81.4082H136.356C136.104 81.8402 135.756 87.4682 135.618 90.4622C135.989 92.2102 136.533 93.9167 137.244 95.5562C137.241 95.5761 137.241 95.5963 137.244 95.6162C137.286 95.7122 137.328 95.8022 137.376 95.8922C137.46 96.0722 137.544 96.2522 137.64 96.4202C137.917 94.5616 138.348 92.7292 138.93 90.9422C138.138 87.4742 137.13 81.4082 137.13 81.4082Z" fill="#FF5900"/>
<path opacity="0.2" d="M135.792 71.6882L137.76 68.2021C137.796 68.2861 137.844 68.3881 137.892 68.4841C138.064 68.9193 138.205 69.3665 138.312 69.8222C138.672 71.3762 137.472 73.5842 136.146 74.6222C136.092 74.5262 136.044 74.4242 135.99 74.3222C135.754 73.8184 135.449 73.3499 135.084 72.9302L135.006 72.8701L135.792 71.6882Z" fill="black"/>
<path d="M126.204 64.2001C125.73 62.0701 129.12 59.1241 129.12 59.1241L125.106 57.7261C123.294 59.0281 124.47 62.7421 126.204 64.2001Z" fill="#263238"/>
<path d="M139.728 58.0441C140.676 63.3721 141.528 66.4441 139.524 69.8461C138.896 70.9632 137.974 71.8872 136.859 72.5183C135.744 73.1493 134.477 73.4632 133.196 73.4262C131.915 73.3891 130.669 73.0024 129.592 72.3079C128.515 71.6134 127.648 70.6377 127.086 69.4861C124.836 65.0941 123.666 57.1261 128.244 53.6281C129.214 52.846 130.373 52.3325 131.604 52.1393C132.835 51.946 134.095 52.0797 135.258 52.527C136.422 52.9742 137.447 53.7194 138.231 54.6877C139.016 55.656 139.532 56.8135 139.728 58.0441Z" fill="#FFBF84"/>
<path d="M139.8 63.4324L137.28 62.7424V59.5024C137.28 59.5024 134.094 57.7024 134.586 55.4524C134.83 54.1874 135.173 52.9436 135.612 51.7324C135.612 51.7324 140.664 51.4084 142.212 52.0564C141.811 52.4908 141.375 52.8921 140.91 53.2564C142.121 54.0944 143.16 55.1578 143.97 56.3884C143.337 56.5293 142.746 56.8148 142.242 57.2224C142.242 57.2224 142.902 61.6684 139.8 63.4324Z" fill="#263238"/>
<path d="M134.004 48.2762C135.858 49.4402 134.784 51.5762 134.784 51.5762L139.746 51.6782C139.482 50.1122 135.18 48.1982 134.004 48.2762Z" fill="#263238"/>
<path d="M135.942 56.5441C135.588 57.5401 131.568 58.7641 127.902 58.8841C126.075 58.8445 124.267 58.5039 122.55 57.8761C123.068 57.3445 123.678 56.9115 124.35 56.5981C122.136 56.0521 119.334 54.1081 118.56 52.5241C120.177 51.9464 121.923 51.8341 123.6 52.2001C123.051 51.7368 122.6 51.1686 122.274 50.5288C121.947 49.889 121.751 49.1905 121.698 48.4741C121.698 48.4741 131.082 52.1941 134.694 50.6521C138.618 48.9721 141.6 52.1221 139.02 54.5221C136.44 56.9221 135.942 56.5441 135.942 56.5441Z" fill="#263238"/>
<path d="M142.596 61.9021C142.647 63.0772 142.265 64.2302 141.522 65.1421C140.55 66.3001 139.038 65.3761 138.69 63.9421C138.378 62.6401 138.786 60.6301 140.064 60.0061C141.342 59.3821 142.53 60.4441 142.596 61.9021Z" fill="#FFBF84"/>
<path d="M131.616 63.0001C131.748 63.4201 131.616 63.8341 131.376 63.9361C131.136 64.0381 130.776 63.7741 130.638 63.3361C130.5 62.8981 130.638 62.5021 130.878 62.4001C131.118 62.2981 131.478 62.5561 131.616 63.0001Z" fill="#263238"/>
<path d="M126.966 64.6801C127.098 65.0941 126.966 65.5141 126.726 65.6101C126.486 65.7061 126.126 65.4541 125.988 65.0101C125.85 64.5661 125.988 64.1761 126.228 64.0801C126.468 63.9841 126.828 64.2601 126.966 64.6801Z" fill="#263238"/>
<path d="M128.556 64.458C128.576 65.6997 128.43 66.9385 128.124 68.142C128.428 68.2068 128.744 68.2032 129.046 68.1316C129.349 68.0601 129.633 67.9222 129.876 67.728L128.556 64.458Z" fill="#A02724"/>
<path d="M131.4 69.3305C131.881 69.169 132.326 68.9127 132.707 68.5768C133.089 68.2409 133.399 67.8321 133.62 67.3745C133.632 67.3426 133.631 67.3073 133.618 67.276C133.604 67.2447 133.579 67.2198 133.548 67.2065C133.532 67.1996 133.516 67.1958 133.499 67.1954C133.482 67.1949 133.465 67.1979 133.45 67.204C133.434 67.2102 133.42 67.2194 133.408 67.2312C133.396 67.2429 133.386 67.257 133.38 67.2725C133.136 67.7687 132.782 68.2022 132.344 68.5393C131.906 68.8764 131.396 69.1081 130.854 69.2165C130.837 69.22 130.821 69.2269 130.807 69.2367C130.793 69.2466 130.781 69.2592 130.772 69.2738C130.763 69.2884 130.757 69.3047 130.755 69.3216C130.752 69.3386 130.753 69.3559 130.758 69.3725C130.765 69.4051 130.785 69.4335 130.813 69.4515C130.841 69.4695 130.875 69.4756 130.908 69.4685C131.075 69.4332 131.239 69.3871 131.4 69.3305Z" fill="#263238"/>
<path d="M132.648 60.5404C132.685 60.5184 132.716 60.4875 132.738 60.4504C132.757 60.4226 132.77 60.3913 132.776 60.3582C132.783 60.3252 132.783 60.2912 132.776 60.2582C132.77 60.2252 132.756 60.1939 132.737 60.1661C132.718 60.1383 132.694 60.1146 132.666 60.0964C132.328 59.8707 131.941 59.7309 131.537 59.689C131.134 59.6472 130.726 59.7047 130.35 59.8564C130.319 59.871 130.291 59.8915 130.269 59.9167C130.246 59.9419 130.228 59.9714 130.217 60.0035C130.205 60.0355 130.2 60.0695 130.202 60.1034C130.204 60.1374 130.212 60.1707 130.227 60.2014C130.241 60.2322 130.262 60.2597 130.287 60.2825C130.312 60.3053 130.342 60.323 130.374 60.3344C130.406 60.3458 130.44 60.3508 130.474 60.3491C130.508 60.3474 130.541 60.339 130.572 60.3244C130.866 60.2103 131.183 60.1692 131.497 60.2047C131.81 60.2403 132.111 60.3513 132.372 60.5284C132.412 60.5564 132.459 60.5724 132.508 60.5745C132.557 60.5766 132.605 60.5648 132.648 60.5404Z" fill="#263238"/>
<path d="M126.042 62.1541C126.053 62.1129 126.053 62.0693 126.042 62.0281C126.015 61.9654 125.965 61.9158 125.902 61.8899C125.839 61.8641 125.769 61.8642 125.706 61.8901C125.328 62.0368 124.992 62.2746 124.729 62.5824C124.465 62.8901 124.281 63.2583 124.194 63.6541C124.192 63.7163 124.213 63.7769 124.253 63.8249C124.293 63.8728 124.348 63.9049 124.409 63.9151C124.471 63.9253 124.534 63.913 124.587 63.8805C124.64 63.848 124.679 63.7974 124.698 63.7381C124.773 63.4294 124.921 63.1434 125.13 62.9042C125.339 62.665 125.602 62.4797 125.898 62.3641C125.938 62.3445 125.972 62.3149 125.998 62.2781C126.023 62.2413 126.038 62.1986 126.042 62.1541Z" fill="#263238"/>
<path d="M155.706 77.8204C156.366 78.6364 156.942 79.3744 157.506 80.1604C158.07 80.9464 158.658 81.7264 159.21 82.5244C160.332 84.1144 161.376 85.7644 162.396 87.4444C163.416 89.1244 164.364 90.8764 165.216 92.7304C166.141 94.6538 166.874 96.6635 167.406 98.7304C167.705 99.932 167.862 101.164 167.874 102.402C167.859 103.64 167.682 104.871 167.346 106.062C166.749 108.137 165.877 110.122 164.754 111.966C164.238 112.848 163.68 113.694 163.098 114.51C162.516 115.326 161.898 116.118 161.298 116.88C160.046 118.413 158.684 119.852 157.224 121.188C156.859 121.514 156.389 121.699 155.9 121.709C155.411 121.72 154.934 121.556 154.554 121.247C154.175 120.938 153.918 120.504 153.83 120.022C153.742 119.541 153.829 119.044 154.074 118.62L154.128 118.53C155.991 115.507 157.62 112.346 159 109.074C159.619 107.6 160.07 106.06 160.344 104.484C160.444 103.852 160.471 103.209 160.422 102.57C160.35 101.938 160.213 101.315 160.014 100.71C159.495 99.1762 158.843 97.6905 158.064 96.2704C157.266 94.7644 156.366 93.2704 155.406 91.7524C154.446 90.2344 153.438 88.7524 152.406 87.2944L150.828 85.0984C150.3 84.3844 149.748 83.6224 149.25 82.9684L149.214 82.9204C148.538 82.0627 148.23 80.9714 148.358 79.8867C148.486 78.802 149.04 77.8127 149.898 77.1364C150.756 76.4601 151.847 76.1522 152.932 76.2805C154.016 76.4087 155.006 76.9627 155.682 77.8204H155.706Z" fill="#263238"/>
<path d="M98.5378 122.082L149.586 119.772C149.747 119.762 149.908 119.784 150.061 119.837C150.213 119.89 150.353 119.974 150.472 120.082C150.592 120.191 150.688 120.323 150.755 120.469C150.822 120.616 150.859 120.775 150.864 120.936L97.3738 123.336C97.3666 123.177 97.3911 123.018 97.4459 122.869C97.5007 122.719 97.5847 122.582 97.6931 122.465C97.8014 122.348 97.9319 122.255 98.0769 122.189C98.222 122.123 98.3786 122.087 98.5378 122.082Z" fill="#017BE0"/>
<g opacity="0.6">
<path d="M98.5378 122.082L149.586 119.772C149.747 119.762 149.908 119.784 150.061 119.837C150.213 119.89 150.353 119.974 150.472 120.082C150.592 120.191 150.688 120.323 150.755 120.469C150.822 120.616 150.859 120.775 150.864 120.936L97.3738 123.336C97.3666 123.177 97.3911 123.018 97.4459 122.869C97.5007 122.719 97.5847 122.582 97.6931 122.465C97.8014 122.348 97.9319 122.255 98.0769 122.189C98.222 122.123 98.3786 122.087 98.5378 122.082Z" fill="white"/>
</g>
<path d="M90.4139 98.4004L126.732 96.7563C126.965 96.7595 127.191 96.8343 127.38 96.9707C127.569 97.107 127.711 97.2982 127.788 97.5184L134.76 119.64C134.797 119.732 134.812 119.831 134.802 119.929C134.792 120.027 134.758 120.122 134.702 120.204C134.647 120.286 134.573 120.353 134.485 120.399C134.398 120.445 134.301 120.469 134.202 120.468L97.8839 122.112C97.6523 122.11 97.427 122.036 97.239 121.901C97.051 121.766 96.9095 121.575 96.8339 121.356L89.8619 99.2284C89.8246 99.1375 89.8101 99.0388 89.8198 98.941C89.8296 98.8432 89.8632 98.7493 89.9177 98.6675C89.9722 98.5858 90.0459 98.5186 90.1325 98.472C90.219 98.4255 90.3156 98.4008 90.4139 98.4004Z" fill="#017BE0"/>
<path opacity="0.6" d="M90.4139 98.4004L126.732 96.7563C126.965 96.7595 127.191 96.8343 127.38 96.9707C127.569 97.107 127.711 97.2982 127.788 97.5184L134.76 119.64C134.797 119.732 134.812 119.831 134.802 119.929C134.792 120.027 134.758 120.122 134.702 120.204C134.647 120.286 134.573 120.353 134.485 120.399C134.398 120.445 134.301 120.469 134.202 120.468L97.8839 122.112C97.6523 122.11 97.427 122.036 97.239 121.901C97.051 121.766 96.9095 121.575 96.8339 121.356L89.8619 99.2284C89.8246 99.1375 89.8101 99.0388 89.8198 98.941C89.8296 98.8432 89.8632 98.7493 89.9177 98.6675C89.9722 98.5858 90.0459 98.5186 90.1325 98.472C90.219 98.4255 90.3156 98.4008 90.4139 98.4004Z" fill="white"/>
<path opacity="0.5" d="M127.8 97.512L134.772 119.634C134.81 119.726 134.826 119.826 134.816 119.925C134.807 120.024 134.773 120.119 134.718 120.202C134.662 120.284 134.587 120.352 134.499 120.399C134.411 120.445 134.313 120.469 134.214 120.468L126.744 96.75C126.977 96.7531 127.203 96.828 127.392 96.9643C127.581 97.1007 127.723 97.2919 127.8 97.512Z" fill="#017BE0"/>
<path opacity="0.5" d="M136.164 120.378L149.586 119.778C149.747 119.768 149.908 119.79 150.061 119.843C150.213 119.897 150.353 119.98 150.472 120.089C150.591 120.197 150.688 120.329 150.755 120.476C150.822 120.622 150.859 120.781 150.864 120.942L135 121.656C134.989 121.495 135.011 121.334 135.064 121.182C135.118 121.029 135.201 120.889 135.31 120.77C135.419 120.651 135.55 120.554 135.697 120.487C135.844 120.42 136.002 120.383 136.164 120.378Z" fill="#017BE0"/>
<path d="M153.12 118.368L149.688 118.866L153.204 123.756C153.204 123.756 158.79 122.862 158.142 120.384L156.942 119.388C156.412 118.96 155.798 118.649 155.139 118.473C154.481 118.297 153.793 118.262 153.12 118.368Z" fill="#FFBF84"/>
<path d="M145.488 120.33L149.79 124.08L153.204 123.756L149.688 118.866L145.488 120.33Z" fill="#FFBF84"/>
</svg>
