<svg width="300" height="300" viewBox="0 0 300 300" fill="none" xmlns="http://www.w3.org/2000/svg">
<path d="M259.404 175.2C258.606 165.216 247.572 151.2 236.358 147.348C222.036 142.404 212.958 150.24 199.848 148.806C164.4 144.924 154.95 119.712 140.898 96.8638C109.746 46.2238 23.5682 67.9018 33.7322 134.004C39.8462 173.754 81.6722 234 144.204 194.484C171.204 177.396 163.008 167.484 191.676 182.826C202.992 188.874 263.028 220.416 259.404 175.2Z" fill="#017BE0"/>
<path opacity="0.9" d="M259.404 175.2C258.606 165.216 247.572 151.2 236.358 147.348C222.036 142.404 212.958 150.24 199.848 148.806C164.4 144.924 154.95 119.712 140.898 96.8638C109.746 46.2238 23.5682 67.9018 33.7322 134.004C39.8462 173.754 81.6722 234 144.204 194.484C171.204 177.396 163.008 167.484 191.676 182.826C202.992 188.874 263.028 220.416 259.404 175.2Z" fill="white"/>
<path d="M82.6925 87.5283C77.8565 92.3943 86.0765 99.9483 80.6465 103.416C85.0805 105.642 100.62 108.468 104.646 99.7143C101.712 97.4343 103.752 91.8303 101.046 86.4483C96.9965 78.4683 77.8565 82.0023 82.6925 87.5283Z" fill="#263238"/>
<path d="M83.1302 87.4027C81.6242 87.1507 76.5302 89.6827 80.3222 96.4807C83.3762 101.977 80.8322 102.367 80.8322 102.367C80.8322 102.367 83.8322 102.451 82.0322 98.3647C80.1242 94.0027 79.2302 89.4787 83.1302 87.4027Z" fill="#263238"/>
<path d="M118.8 130.566C118.614 130.227 118.303 129.973 117.933 129.861C117.562 129.749 117.163 129.787 116.82 129.966L116.466 130.152C116.352 130.212 116.136 130.356 115.962 130.458C115.788 130.56 115.584 130.674 115.392 130.77C115.014 130.961 114.623 131.125 114.222 131.262C113.48 131.531 112.7 131.679 111.912 131.7C111.188 131.709 110.467 131.593 109.782 131.358C109.347 131.197 108.927 130.996 108.528 130.758C108.012 129.618 107.52 128.466 107.1 127.278C106.59 125.892 106.14 124.476 105.744 123.042C105.348 121.608 105 120.156 104.712 118.698C104.562 117.972 104.43 117.24 104.31 116.514L104.148 115.428C104.094 115.08 104.046 114.684 104.016 114.408V114.288C103.936 113.493 103.544 112.761 102.925 112.255C102.306 111.748 101.512 111.509 100.716 111.588C99.9203 111.668 99.1888 112.06 98.6825 112.679C98.1761 113.298 97.9364 114.093 98.0159 114.888C98.0579 115.398 98.0939 115.788 98.1479 116.214C98.2019 116.64 98.2619 117.048 98.3219 117.462C98.4539 118.29 98.6039 119.106 98.7719 119.922C99.1055 121.544 99.5261 123.146 100.032 124.722C100.266 125.514 100.554 126.294 100.824 127.08C101.094 127.866 101.424 128.634 101.766 129.396C102.421 130.936 103.164 132.436 103.992 133.89L104.064 134.022C104.279 134.413 104.602 134.733 104.994 134.946C106.128 135.564 107.353 135.998 108.624 136.23C109.929 136.461 111.266 136.432 112.56 136.146C114.386 135.723 116.063 134.812 117.414 133.512C117.636 133.308 117.846 133.098 118.014 132.876C118.182 132.654 118.386 132.444 118.614 132.132C118.79 131.915 118.901 131.653 118.934 131.376C118.967 131.099 118.92 130.818 118.8 130.566Z" fill="#FFBF84"/>
<path d="M122.79 124.95H122.616C122.041 124.938 121.472 125.058 120.952 125.302C120.431 125.545 119.974 125.905 119.616 126.354L116.718 129.99V132.474C119.046 133.398 121.998 130.908 121.998 130.908L123.492 130.53C123.995 130.405 124.433 130.097 124.722 129.667C125.012 129.237 125.131 128.715 125.058 128.202L124.842 126.744C124.771 126.249 124.525 125.795 124.149 125.466C123.772 125.137 123.29 124.954 122.79 124.95Z" fill="#FFBF84"/>
<path d="M103.938 110.928C105.876 112.92 105.996 118.866 105.996 118.866L98.2443 125.106C98.2443 125.106 95.0583 116.286 96.8223 113.172C98.3163 110.532 101.466 108.39 103.938 110.928Z" fill="#263238"/>
<path d="M91.1104 244.602L95.3944 245.07L95.9823 233.43L91.6983 232.956L91.1104 244.602Z" fill="#FFBF84"/>
<path d="M96.0962 242.275H91.0622C90.9608 242.271 90.862 242.308 90.7869 242.376C90.7119 242.444 90.6664 242.539 90.6602 242.641L90.3242 247.399C90.3241 247.648 90.4214 247.887 90.5951 248.065C90.7689 248.243 91.0054 248.346 91.2542 248.353C93.3782 248.353 93.4022 248.353 96.0542 248.353H103.2C105.396 248.353 105.402 246.127 104.454 245.923C100.188 245.023 98.5262 243.775 97.0202 242.587C96.7556 242.383 96.4304 242.273 96.0962 242.275Z" fill="#263238"/>
<path opacity="0.2" d="M95.9822 233.436L95.6762 239.436H91.3682L91.6982 232.962L95.9822 233.436Z" fill="black"/>
<path d="M98.2921 140.563C98.2921 140.563 102 171.601 102 185.401C99.0781 204.601 96.6001 238.297 96.6001 238.297L90.6721 238.141C90.6721 238.141 87.9781 201.445 90.4741 185.599C87.2761 171.403 83.3281 138.643 83.3281 138.643L98.2921 140.563Z" fill="#FF5900"/>
<path opacity="0.2" d="M86.8625 149.202C86.156 149.513 85.4705 149.87 84.8105 150.27C85.6265 156.396 86.7005 164.106 87.8405 171.222C89.7845 165.366 88.7345 152.49 86.8625 149.202Z" fill="black"/>
<path d="M44.7178 233.796L48.2518 236.262L54.3478 226.326L50.8138 223.86L44.7178 233.796Z" fill="#FFBF84"/>
<path d="M49.1461 234.961L46.1461 230.923C46.089 230.84 46.0016 230.783 45.9029 230.764C45.8042 230.745 45.7019 230.765 45.6181 230.821L41.5981 233.401C41.3975 233.548 41.2631 233.769 41.2238 234.015C41.1845 234.26 41.2435 234.512 41.3881 234.715C42.6421 236.425 42.6661 236.437 44.2441 238.561C45.2221 239.863 47.1721 242.485 48.5161 244.291C49.8601 246.097 51.6181 244.729 51.2101 243.841C49.4101 239.887 49.4101 237.841 49.4461 235.897C49.4522 235.56 49.3467 235.231 49.1461 234.961Z" fill="#263238"/>
<path opacity="0.2" d="M54.342 226.326L51.204 231.45L47.418 229.386L50.814 223.86L54.342 226.326Z" fill="black"/>
<path d="M66.3961 237.96C63.3301 237.96 56.9461 237.96 56.8381 233.448C56.7541 229.908 61.1341 228.438 64.9141 228.258C65.3329 228.238 65.7516 228.301 66.1462 228.442C66.5409 228.584 66.9037 228.802 67.2141 229.084C67.5244 229.366 67.7762 229.706 67.955 230.085C68.1338 230.465 68.2361 230.875 68.2561 231.294V231.534C72.5401 231.33 75.3121 230.394 76.3261 228.798C78.6121 225.198 74.2321 215.904 70.0021 206.922C65.0221 196.356 59.3821 184.386 59.2741 172.92C59.2701 172.501 59.3488 172.085 59.5056 171.696C59.6623 171.308 59.8941 170.954 60.1878 170.654C60.4814 170.355 60.8311 170.117 61.2168 169.953C61.6026 169.789 62.0169 169.702 62.4361 169.698C63.277 169.7 64.0835 170.032 64.6809 170.624C65.2784 171.216 65.6186 172.019 65.6281 172.86C65.7241 182.928 71.0281 194.226 75.7441 204.198C81.1441 215.706 85.8541 225.648 81.6841 232.218C79.2661 236.082 74.2561 237.96 66.3961 237.96Z" fill="#017BE0"/>
<path d="M93.5457 139.95C93.5457 139.95 83.3097 175.422 78.3117 188.286C68.6277 205.122 52.5597 230.886 52.5597 230.886L47.4297 227.886C47.4297 227.886 59.4297 198.126 67.4997 184.266C69.6657 169.866 77.8557 137.91 77.8557 137.91L93.5457 139.95Z" fill="#FF5900"/>
<path d="M50.0703 237.858C50.2739 238.195 50.5875 238.451 50.9583 238.584C51.0668 238.61 51.1805 238.605 51.2865 238.57C51.3925 238.535 51.4866 238.471 51.5583 238.386C51.6082 238.34 51.6463 238.283 51.6692 238.219C51.6922 238.155 51.6995 238.087 51.6903 238.02C51.6183 237.3 49.7583 236.364 49.3863 236.184C49.3646 236.175 49.3405 236.174 49.3184 236.182C49.2963 236.19 49.2777 236.205 49.2663 236.226C49.2518 236.248 49.2441 236.274 49.2441 236.301C49.2441 236.327 49.2518 236.354 49.2663 236.376C49.4866 236.894 49.7558 237.391 50.0703 237.858ZM51.3483 237.858C51.4011 237.924 51.4362 238.002 51.4503 238.086C51.4532 238.109 51.4503 238.133 51.442 238.155C51.4336 238.177 51.42 238.196 51.4023 238.212C51.3539 238.267 51.2917 238.308 51.2222 238.331C51.1526 238.355 51.0781 238.359 51.0063 238.344C50.6103 238.266 50.0883 237.624 49.5843 236.61C50.2378 236.914 50.8344 237.328 51.3483 237.834V237.858Z" fill="#FF5900"/>
<path d="M49.2363 236.401L49.2723 236.431C49.8723 236.761 51.4323 237.031 51.7743 236.533C51.8317 236.442 51.8597 236.335 51.8543 236.228C51.8489 236.12 51.8105 236.017 51.7443 235.933C51.1443 234.871 49.3443 236.119 49.2663 236.173C49.2484 236.187 49.2342 236.205 49.2248 236.226C49.2154 236.247 49.2111 236.27 49.2123 236.293C49.2099 236.33 49.2182 236.368 49.2363 236.401ZM51.5163 236.053C51.5338 236.074 51.5498 236.096 51.5643 236.119C51.6303 236.233 51.6423 236.317 51.6063 236.365C51.4083 236.653 50.2563 236.551 49.5843 236.287C50.0343 236.017 51.0843 235.471 51.5163 236.053Z" fill="#FF5900"/>
<path d="M99.0002 243.264C99.3934 243.3 99.7871 243.201 100.116 242.982C100.2 242.909 100.261 242.814 100.294 242.709C100.327 242.603 100.33 242.49 100.302 242.382C100.294 242.314 100.27 242.25 100.232 242.192C100.195 242.135 100.145 242.087 100.086 242.052C99.4862 241.686 97.6082 242.616 97.2422 242.808C97.2216 242.82 97.2055 242.838 97.1967 242.86C97.188 242.882 97.1871 242.906 97.1942 242.928C97.2033 242.953 97.2185 242.976 97.2384 242.994C97.2583 243.011 97.2822 243.024 97.3082 243.03C97.8627 243.166 98.4297 243.244 99.0002 243.264ZM99.7442 242.226C99.8296 242.221 99.9149 242.24 99.9902 242.28C100.02 242.28 100.05 242.322 100.062 242.394C100.078 242.466 100.074 242.541 100.051 242.61C100.027 242.68 99.9858 242.742 99.9302 242.79C99.6362 243.06 98.8082 243.096 97.6922 242.898C98.3228 242.56 99.0067 242.333 99.7142 242.226H99.7442Z" fill="#FF5900"/>
<path d="M97.3082 243.06H97.3502C97.9502 242.784 99.1202 241.686 98.9282 241.116C98.8882 241.022 98.8214 240.942 98.736 240.885C98.6507 240.829 98.5506 240.798 98.4482 240.798C97.2482 240.66 97.1642 242.832 97.1582 242.922C97.1584 242.946 97.1645 242.97 97.176 242.991C97.1876 243.012 97.2041 243.029 97.2242 243.042C97.2497 243.057 97.279 243.063 97.3082 243.06ZM98.3882 241.02H98.4722C98.5982 241.02 98.6762 241.074 98.6942 241.134C98.8082 241.464 98.0402 242.334 97.4222 242.712C97.4762 242.19 97.6682 241.02 98.4002 241.02H98.3882Z" fill="#FF5900"/>
<path d="M77.8564 137.941L98.2925 140.557C102.9 125.041 104.418 117.547 104.826 113.941C104.934 113.034 104.723 112.119 104.227 111.352C103.732 110.585 102.985 110.015 102.114 109.741C100.914 109.357 99.3664 108.901 97.8305 108.541C97.3084 108.403 96.7744 108.277 96.2524 108.157C93.193 107.536 90.0931 107.135 86.9765 106.957C86.5145 106.915 86.0585 106.891 85.5965 106.867C84.6905 106.819 83.7965 106.807 82.9805 106.807C82.368 106.806 81.7621 106.933 81.2014 107.179C80.6407 107.425 80.1374 107.786 79.7236 108.237C79.3099 108.689 78.9947 109.222 78.7983 109.802C78.6018 110.382 78.5283 110.997 78.5824 111.607C78.7444 113.407 78.8704 115.081 78.9664 116.617C79.1944 120.217 79.2665 123.097 79.2125 125.617C79.0898 129.754 78.6364 133.875 77.8564 137.941Z" fill="#263238"/>
<path opacity="0.3" d="M79.2001 125.592C81.9001 122.1 82.8781 118.104 82.0021 115.902L78.9541 116.586C79.2001 120.174 79.2661 123.066 79.2001 125.592Z" fill="black"/>
<path d="M97.8299 108.505C97.3019 108.367 96.7738 108.241 96.2519 108.121C93.1899 107.503 90.0882 107.102 86.9698 106.921C86.5078 106.885 86.0519 106.861 85.5959 106.837L84.7979 106.801L85.3979 107.851C85.4819 107.995 87.5219 111.331 92.5979 114.919L93.6839 115.675L94.7279 114.877C95.7332 114.156 96.5548 113.208 97.126 112.11C97.6972 111.013 98.002 109.796 98.0159 108.559L97.8299 108.505Z" fill="white"/>
<path d="M89.2257 100.752C89.0337 103.278 88.4397 105.852 86.9697 106.932C86.9697 106.932 88.8417 110.046 93.6897 113.448C96.7257 111.126 96.2517 108.12 96.2517 108.12C93.0237 106.92 93.2517 104.682 94.6137 101.112L92.0937 99.756C91.8763 99.5164 91.5933 99.346 91.2798 99.2661C90.9663 99.1861 90.6362 99.2 90.3306 99.3062C90.0249 99.4123 89.7573 99.6059 89.5608 99.863C89.3644 100.12 89.2479 100.429 89.2257 100.752Z" fill="#FFBF84"/>
<path opacity="0.2" d="M92.0939 99.7566C91.8897 99.531 91.6271 99.3663 91.3352 99.2806C91.0432 99.195 90.7333 99.1917 90.4396 99.2712C90.1459 99.3506 89.8799 99.5098 89.671 99.731C89.4621 99.9522 89.3184 100.227 89.2559 100.525C90.2131 102.455 91.7569 104.032 93.6659 105.031C93.7342 103.677 94.0537 102.349 94.6079 101.113L92.0939 99.7566Z" fill="black"/>
<path d="M85.3025 92.8325C86.5565 97.7105 86.9825 99.7985 89.9645 101.832C94.4465 104.916 100.165 102.312 100.387 97.1645C100.597 92.5265 98.5145 85.3265 93.3065 84.2945C92.1568 84.0594 90.9661 84.1228 89.8478 84.4786C88.7296 84.8343 87.7211 85.4706 86.9185 86.3267C86.1159 87.1828 85.546 88.2303 85.2632 89.3691C84.9803 90.508 84.9938 91.7003 85.3025 92.8325Z" fill="#FFBF84"/>
<path d="M97.716 85.302C94.7781 87.9136 91.2929 89.8346 87.516 90.924C87.516 90.924 91.242 98.85 84.27 96.852C82.248 90.102 84.27 86.598 86.07 84.948C91.614 83.148 95.514 82.548 97.716 85.302Z" fill="#263238"/>
<path d="M85.0685 97.6385C85.4773 98.5223 86.2194 99.2083 87.1325 99.5465C88.3325 99.9785 89.0465 98.9465 88.7885 97.7465C88.5545 96.6725 87.6425 95.1485 86.3885 95.2265C86.1173 95.2497 85.856 95.3396 85.628 95.4882C85.3999 95.6369 85.2122 95.8396 85.0815 96.0784C84.9508 96.3172 84.8812 96.5846 84.879 96.8568C84.8767 97.129 84.9418 97.3976 85.0685 97.6385Z" fill="#FFBF84"/>
<path d="M77.7059 136.704L76.5479 138.414C76.4579 138.546 76.6079 138.714 76.8419 138.744L98.2739 141.492C98.4599 141.492 98.6219 141.444 98.6519 141.33L99.0719 139.53C99.0719 139.404 98.9519 139.278 98.7539 139.248L78.0539 136.596C77.9916 136.582 77.9264 136.584 77.8653 136.603C77.8041 136.622 77.7491 136.657 77.7059 136.704Z" fill="#017BE0"/>
<path d="M80.1845 139.375L79.6325 139.303C79.5245 139.303 79.4465 139.219 79.4645 139.153L80.0285 136.807C80.05 136.767 80.0842 136.736 80.1257 136.719C80.1671 136.701 80.2132 136.698 80.2565 136.711L80.8145 136.783C80.9225 136.783 81.0005 136.861 80.9825 136.933L80.4185 139.273C80.4005 139.345 80.2985 139.387 80.1845 139.375Z" fill="#263238"/>
<path d="M96.6904 141.486L96.1384 141.42C96.0304 141.42 95.9524 141.336 95.9704 141.264L96.5344 138.924C96.5344 138.858 96.6544 138.81 96.7624 138.822L97.3204 138.894C97.4284 138.894 97.5064 138.978 97.4884 139.044L96.9244 141.39C96.9064 141.456 96.8044 141.504 96.6904 141.486Z" fill="#263238"/>
<path d="M88.4405 140.431L87.8885 140.359C87.7745 140.359 87.6965 140.281 87.7145 140.209L88.2785 137.869C88.2785 137.797 88.3985 137.755 88.5125 137.767L89.0645 137.839C89.1725 137.839 89.2505 137.923 89.2385 137.989L88.6685 140.335C88.6565 140.401 88.5485 140.443 88.4405 140.431Z" fill="#263238"/>
<path d="M93.6597 92.6223C93.7317 93.0243 94.0077 93.3123 94.2597 93.2583C94.5117 93.2043 94.6737 92.8443 94.5957 92.4423C94.5177 92.0403 94.2417 91.7523 93.9957 91.8063C93.7497 91.8603 93.5997 92.2203 93.6597 92.6223Z" fill="#263238"/>
<path d="M98.1959 91.7521C98.2739 92.1541 98.5499 92.4361 98.7959 92.3881C99.0419 92.3401 99.2099 91.9681 99.1319 91.5661C99.0539 91.1641 98.7779 90.8821 98.5319 90.9301C98.2859 90.9781 98.1239 91.3501 98.1959 91.7521Z" fill="#263238"/>
<path d="M98.4004 90.9787L99.3124 90.5107C99.3124 90.5107 99.0004 91.3627 98.4004 90.9787Z" fill="#263238"/>
<path d="M96.9961 92.6523C97.5323 93.4976 98.1801 94.2665 98.9221 94.9383C98.7463 95.1251 98.5315 95.2709 98.293 95.3653C98.0545 95.4596 97.7981 95.5003 97.5421 95.4843L96.9961 92.6523Z" fill="#FF5652"/>
<path d="M94.1639 97.1046C94.1458 97.1255 94.1355 97.1521 94.1348 97.1798C94.1341 97.2075 94.1429 97.2345 94.1599 97.2564C94.1768 97.2783 94.2008 97.2937 94.2278 97.2999C94.2548 97.3061 94.2831 97.3028 94.3079 97.2906C94.7613 97.0593 95.263 96.9387 95.7719 96.9387C96.2809 96.9387 96.7826 97.0593 97.2359 97.2906C97.2631 97.306 97.2952 97.3103 97.3255 97.3025C97.3557 97.2946 97.3817 97.2753 97.3979 97.2486C97.4143 97.2212 97.4197 97.1887 97.413 97.1575C97.4063 97.1263 97.3881 97.0988 97.3619 97.0806C96.8726 96.8299 96.3307 96.6992 95.7809 96.6992C95.2312 96.6992 94.6893 96.8299 94.1999 97.0806C94.1999 97.0806 94.1999 97.0926 94.1639 97.1046Z" fill="#263238"/>
<path d="M92.0944 91.3864C92.1314 91.3636 92.1607 91.3302 92.1784 91.2904C92.3034 91.017 92.4915 90.7771 92.7272 90.5904C92.9629 90.4037 93.2395 90.2755 93.5344 90.2164C93.566 90.2127 93.5965 90.2028 93.6243 90.1872C93.652 90.1715 93.6764 90.1505 93.6959 90.1254C93.7154 90.1003 93.7298 90.0715 93.7381 90.0408C93.7464 90.0101 93.7486 89.978 93.7444 89.9464C93.7414 89.9151 93.7322 89.8846 93.7172 89.8569C93.7022 89.8292 93.6817 89.8049 93.6571 89.7852C93.6324 89.7656 93.6041 89.7512 93.5737 89.7428C93.5433 89.7344 93.5116 89.7323 93.4804 89.7364C93.1053 89.8065 92.7524 89.965 92.4508 90.1987C92.1492 90.4325 91.9078 90.7347 91.7464 91.0804C91.7231 91.1278 91.716 91.1815 91.7263 91.2332C91.7365 91.2849 91.7636 91.3319 91.8032 91.3667C91.8428 91.4015 91.8928 91.4223 91.9454 91.4259C91.9981 91.4295 92.0504 91.4156 92.0944 91.3864Z" fill="#263238"/>
<path d="M99.546 88.3446L99.576 88.3146C99.5943 88.2887 99.6073 88.2594 99.6141 88.2284C99.621 88.1974 99.6217 88.1653 99.6161 88.1341C99.6106 88.1028 99.5988 88.073 99.5816 88.0463C99.5644 88.0196 99.5421 87.9966 99.516 87.9786C99.2059 87.7557 98.847 87.61 98.4692 87.5536C98.0915 87.4973 97.7057 87.5319 97.344 87.6546C97.2862 87.6798 97.2403 87.7262 97.2157 87.7843C97.1912 87.8423 97.1898 87.9076 97.212 87.9666C97.236 88.0254 97.2822 88.0723 97.3407 88.097C97.3992 88.1218 97.4651 88.1224 97.524 88.0986C97.8113 88.0045 98.117 87.9804 98.4155 88.0284C98.714 88.0764 98.9967 88.1951 99.24 88.3746C99.286 88.4074 99.3424 88.4224 99.3986 88.4169C99.4549 88.4114 99.5072 88.3857 99.546 88.3446Z" fill="#263238"/>
<path d="M93.8818 91.8487L94.7938 91.3867C94.7938 91.3867 94.4398 92.2327 93.8818 91.8487Z" fill="#263238"/>
<path d="M62.4663 176.083C61.6249 176.083 60.8175 175.75 60.2197 175.158C59.622 174.566 59.2822 173.762 59.2743 172.921C59.1903 164.401 62.0283 157.207 67.4823 152.119C74.1963 145.855 84.6663 142.945 96.9783 143.917C105.612 144.601 111.15 142.501 117.558 140.059C118.614 139.663 119.676 139.255 120.768 138.859C121.564 138.569 122.442 138.607 123.209 138.965C123.977 139.323 124.571 139.971 124.86 140.767C125.15 141.562 125.112 142.44 124.754 143.208C124.396 143.975 123.748 144.569 122.952 144.859C121.89 145.243 120.858 145.639 119.832 146.029C113.298 148.513 106.548 151.075 96.4743 150.283C85.9743 149.449 77.2263 151.759 71.8383 156.787C67.6383 160.675 65.5923 166.081 65.6583 172.861C65.6622 173.28 65.5836 173.696 65.4268 174.084C65.27 174.473 65.0382 174.827 64.7446 175.126C64.451 175.426 64.1013 175.664 63.7155 175.828C63.3298 175.992 62.9155 176.079 62.4963 176.083H62.4663Z" fill="#017BE0"/>
<path d="M136.287 149.365L123.448 154.069C122.376 154.461 121.193 154.412 120.158 153.932C119.123 153.452 118.321 152.581 117.928 151.509L112.626 137.036C112.234 135.965 112.283 134.781 112.763 133.746C113.243 132.711 114.114 131.909 115.186 131.517L128.025 126.813L136.281 149.348L136.287 149.365Z" fill="#017BE0"/>
<path opacity="0.7" d="M136.287 149.365L123.448 154.069C122.376 154.461 121.193 154.412 120.158 153.932C119.123 153.452 118.321 152.581 117.928 151.509L112.626 137.036C112.234 135.965 112.283 134.781 112.763 133.746C113.243 132.711 114.114 131.909 115.186 131.517L128.025 126.813L136.281 149.348L136.287 149.365Z" fill="white"/>
<path opacity="0.2" d="M122.304 128.905L128.034 126.811L136.29 149.359L130.56 151.459C130.179 151.09 129.887 150.638 129.708 150.139L122.508 130.465C122.32 129.967 122.25 129.433 122.304 128.905Z" fill="#017BE0"/>
<path d="M140.901 132.426L140.338 132.633L141.712 136.385L142.276 136.179L140.901 132.426Z" fill="#017BE0"/>
<path d="M139.47 130.296L137.448 124.764C137.101 123.826 136.475 123.016 135.655 122.445C134.834 121.873 133.858 121.566 132.858 121.566C132.289 121.564 131.724 121.664 131.19 121.86L127.542 123.198L127.332 122.634L130.986 121.296C131.586 121.076 132.219 120.964 132.858 120.966C133.982 120.968 135.078 121.315 135.999 121.958C136.92 122.602 137.623 123.512 138.012 124.566L140.034 130.098L139.47 130.296Z" fill="#017BE0"/>
<path d="M136.386 150.981L141.744 149.043C143.495 148.41 144.401 146.477 143.768 144.727L136.495 124.62C135.862 122.87 133.929 121.964 132.179 122.597L126.821 124.535C125.07 125.168 124.164 127.101 124.798 128.851L132.07 148.958C132.703 150.708 134.636 151.614 136.386 150.981Z" fill="#017BE0"/>
<path d="M133.32 130.723C133.442 131.057 133.462 131.421 133.378 131.767C133.294 132.113 133.109 132.426 132.846 132.667C132.584 132.908 132.256 133.066 131.904 133.12C131.552 133.174 131.191 133.123 130.869 132.972C130.546 132.822 130.275 132.579 130.09 132.274C129.905 131.97 129.815 131.617 129.831 131.261C129.847 130.906 129.968 130.562 130.178 130.275C130.389 129.988 130.681 129.77 131.016 129.649C131.464 129.486 131.958 129.508 132.39 129.71C132.822 129.911 133.156 130.275 133.32 130.723Z" fill="#263238"/>
<path d="M137.802 142.956C137.924 143.291 137.944 143.654 137.859 143.999C137.775 144.345 137.59 144.658 137.328 144.899C137.065 145.139 136.738 145.297 136.386 145.351C136.034 145.406 135.674 145.355 135.352 145.205C135.029 145.055 134.758 144.812 134.573 144.508C134.388 144.204 134.297 143.852 134.312 143.497C134.327 143.141 134.447 142.798 134.657 142.511C134.867 142.223 135.158 142.005 135.492 141.882C135.714 141.801 135.95 141.764 136.186 141.774C136.423 141.784 136.655 141.84 136.869 141.94C137.084 142.04 137.277 142.181 137.437 142.355C137.597 142.53 137.721 142.734 137.802 142.956Z" fill="#263238"/>
<path d="M85.2002 141.511L85.1522 141.457C84.2162 140.521 83.2262 139.501 82.3322 138.457C81.4382 137.413 80.5622 136.369 79.7642 135.289C78.9818 134.235 78.2703 133.13 77.6342 131.983C77.1791 131.162 76.7918 130.305 76.4762 129.421C76.8362 128.221 77.2202 127.021 77.6762 125.869C78.1982 124.483 78.7862 123.121 79.4282 121.777C80.0702 120.433 80.7542 119.113 81.4922 117.823C81.8522 117.175 82.2302 116.533 82.6202 115.903L83.2202 114.979C83.4062 114.679 83.6282 114.379 83.7842 114.121L83.8502 114.025C84.2767 113.374 84.4342 112.584 84.2894 111.82C84.1445 111.056 83.7088 110.378 83.0739 109.929C82.4391 109.481 81.6547 109.296 80.8862 109.414C80.1177 109.532 79.425 109.944 78.9542 110.563C78.6542 110.971 78.4262 111.295 78.1862 111.649C77.9462 112.003 77.7302 112.357 77.5022 112.711C77.0642 113.419 76.6382 114.133 76.2302 114.859C75.4186 116.307 74.6835 117.797 74.0282 119.323C73.6922 120.079 73.4282 120.853 73.0862 121.627C72.7442 122.401 72.5162 123.187 72.2762 123.991C71.7669 125.584 71.3483 127.204 71.0222 128.845V128.983C70.9291 129.42 70.9603 129.876 71.1122 130.297C71.6936 131.835 72.4656 133.294 73.4102 134.641C74.2998 135.918 75.291 137.122 76.3742 138.241C77.4295 139.318 78.5496 140.33 79.7282 141.271C80.9064 142.21 82.1429 143.074 83.4302 143.857C83.7428 144.039 84.1114 144.102 84.4668 144.032C84.8222 143.963 85.1401 143.766 85.3609 143.479C85.5816 143.192 85.6902 142.835 85.6661 142.473C85.6421 142.112 85.4871 141.772 85.2302 141.517L85.2002 141.511Z" fill="#FFBF84"/>
<path d="M92.1724 144.492L92.0944 144.336C91.8453 143.816 91.4788 143.361 91.0238 143.007C90.5687 142.653 90.0376 142.41 89.4724 142.296L84.9184 141.372L82.6924 142.482C82.9324 144.978 86.4964 146.472 86.4964 146.472L87.5104 147.63C87.8523 148.018 88.3255 148.267 88.8393 148.328C89.353 148.389 89.8712 148.258 90.2944 147.96L91.4944 147.102C91.8977 146.817 92.1871 146.399 92.3112 145.921C92.4353 145.443 92.3861 144.937 92.1724 144.492Z" fill="#FFBF84"/>
<path d="M81.1144 107.19C78.5884 108.348 75.9004 112.356 75.9004 112.356L81.3004 122.466C81.3004 122.466 87.4384 115.392 86.9224 111.852C86.5024 108.846 84.3304 105.714 81.1144 107.19Z" fill="#263238"/>
<path d="M253.974 239.658C248.688 239.658 243.492 238.572 240.972 235.284C229.044 219.684 229.152 188.304 229.254 157.938C229.314 141.588 230.604 126.138 228.786 114.138C227.718 107.064 223.986 102.21 220.218 99.7023C214.626 96.0063 206.946 97.9923 203.664 98.8383C203.255 98.9525 202.828 98.9841 202.407 98.9311C201.986 98.8781 201.579 98.7416 201.211 98.5297C200.844 98.3177 200.522 98.0345 200.265 97.6967C200.008 97.3589 199.821 96.9732 199.715 96.5622C199.609 96.1512 199.585 95.7232 199.647 95.3031C199.708 94.8831 199.852 94.4795 200.072 94.116C200.291 93.7525 200.58 93.4363 200.923 93.186C201.266 92.9357 201.655 92.7563 202.068 92.6583C206.166 91.5963 215.778 89.1183 223.734 94.3743C229.104 97.9203 233.748 104.25 235.098 113.184C236.988 125.664 235.698 141.342 235.638 157.938C235.536 187.236 235.434 217.53 246.042 231.384C246.9 232.5 250.242 233.502 255.792 233.214C256.284 233.214 256.764 233.16 257.238 233.118C257.023 232.684 256.913 232.205 256.914 231.72C256.914 230.874 257.251 230.062 257.849 229.463C258.448 228.865 259.26 228.528 260.106 228.528C267.084 228.528 270.756 229.128 271.464 232.32C271.668 233.238 271.776 235.542 268.404 237.12C265.884 238.302 259.872 239.658 253.974 239.658Z" fill="#017BE0"/>
<path d="M184.122 242.412L177.612 239.85L181.044 228.564L187.56 231.12L184.122 242.412Z" fill="#FFBF84"/>
<path d="M177.456 239.161L184.8 242.041C184.893 242.078 184.971 242.146 185.021 242.233C185.071 242.32 185.09 242.421 185.076 242.521L184.356 247.093C184.337 247.203 184.294 247.308 184.229 247.4C184.165 247.491 184.08 247.567 183.983 247.622C183.885 247.676 183.776 247.709 183.664 247.716C183.552 247.723 183.44 247.705 183.336 247.663C181.494 246.901 178.608 245.641 176.274 244.723C174.84 244.159 172.11 243.259 170.124 242.479C168.138 241.699 168.654 239.635 169.524 239.779C173.478 240.415 174.99 239.737 176.568 239.149C176.855 239.039 177.173 239.043 177.456 239.161Z" fill="#263238"/>
<path opacity="0.2" d="M187.56 231.126L181.044 228.564L179.274 234.384L185.79 236.946L187.56 231.126Z" fill="black"/>
<path d="M195.702 143.767C195.702 143.767 189.81 172.891 187.56 187.255C185.028 203.353 178.338 232.759 178.338 232.759L186.996 236.161C186.996 236.161 199.362 206.053 201.084 191.473C206.274 179.623 216.594 144.751 216.594 144.751L195.702 143.767Z" fill="#FF5900"/>
<path d="M177.918 232.807L187.422 236.545L189.048 233.665L178.422 229.261L177.918 232.807Z" fill="#DA4C00"/>
<path d="M175.59 239.287C175.258 239.184 174.971 238.972 174.774 238.687C174.719 238.581 174.69 238.464 174.69 238.345C174.69 238.226 174.719 238.109 174.774 238.003C174.798 237.938 174.84 237.881 174.895 237.838C174.951 237.796 175.016 237.77 175.086 237.763C175.716 237.697 176.886 239.233 177 239.413C177.013 239.432 177.019 239.455 177.019 239.479C177.019 239.502 177.013 239.525 177 239.545C176.987 239.565 176.969 239.58 176.948 239.59C176.926 239.599 176.903 239.602 176.88 239.599C176.44 239.542 176.007 239.437 175.59 239.287ZM175.272 238.033C175.223 238.009 175.169 237.999 175.116 238.003C175.08 238.003 175.038 238.003 174.996 238.105C174.956 238.176 174.935 238.257 174.935 238.339C174.935 238.421 174.956 238.501 174.996 238.573C175.17 238.891 175.77 239.173 176.64 239.317C176.274 238.802 175.809 238.365 175.272 238.033Z" fill="#FF5900"/>
<path d="M176.868 239.592C176.849 239.586 176.832 239.573 176.82 239.556C176.436 239.1 175.896 237.69 176.22 237.204C176.27 237.129 176.345 237.073 176.431 237.046C176.517 237.019 176.61 237.022 176.694 237.054C176.784 237.077 176.867 237.118 176.939 237.175C177.012 237.232 177.071 237.303 177.114 237.384C177.486 238.05 177.066 239.454 177.048 239.514C177.041 239.536 177.029 239.555 177.012 239.57C176.995 239.584 176.974 239.594 176.952 239.598C176.939 239.605 176.924 239.608 176.91 239.607C176.895 239.606 176.881 239.601 176.868 239.592ZM176.664 237.3H176.616C176.46 237.264 176.424 237.3 176.406 237.354C176.226 237.642 176.52 238.662 176.862 239.22C177.034 238.665 177.034 238.072 176.862 237.516C176.824 237.423 176.754 237.346 176.664 237.3Z" fill="#FF5900"/>
<path opacity="0.2" d="M208.404 161.4C205.14 165.444 203.85 175.752 203.862 184.344C206.064 178.278 208.59 170.574 210.81 163.578L208.404 161.4Z" fill="black"/>
<path d="M223.302 243.498H216.306L215.376 231.738H222.372L223.302 243.498Z" fill="#FFBF84"/>
<path d="M215.91 242.91H223.8C223.901 242.909 223.999 242.944 224.078 243.007C224.157 243.07 224.211 243.159 224.232 243.258L225.234 247.77C225.257 247.88 225.256 247.994 225.229 248.104C225.202 248.213 225.151 248.315 225.08 248.402C225.008 248.489 224.918 248.559 224.816 248.606C224.714 248.654 224.602 248.678 224.49 248.676C222.498 248.64 219.36 248.52 216.852 248.52C215.304 248.52 212.436 248.682 210.306 248.682C208.176 248.682 207.906 246.576 208.764 246.384C212.682 245.526 213.846 244.35 215.094 243.222C215.319 243.022 215.609 242.911 215.91 242.91Z" fill="#263238"/>
<path opacity="0.2" d="M222.372 231.738H215.37L215.856 237.804H222.858L222.372 231.738Z" fill="black"/>
<path d="M204.174 144.133C204.174 144.133 208.05 176.587 208.866 188.269C210 204.529 214.386 236.629 214.386 236.629H223.686C223.686 236.629 224.682 203.845 223.002 189.259C225.318 176.533 224.586 145.111 224.586 145.111L204.174 144.133Z" fill="#FF5900"/>
<path d="M214.015 236.827H224.227L224.689 233.557L213.187 233.341L214.015 236.827Z" fill="#DA4C00"/>
<path d="M214.2 243.708C213.855 243.734 213.51 243.644 213.222 243.45C213.133 243.372 213.063 243.273 213.02 243.163C212.976 243.052 212.959 242.933 212.97 242.814C212.97 242.744 212.99 242.674 213.027 242.614C213.064 242.553 213.117 242.505 213.18 242.472C213.744 242.184 215.382 243.192 215.58 243.306C215.601 243.318 215.618 243.336 215.629 243.357C215.639 243.379 215.643 243.403 215.64 243.426C215.635 243.45 215.623 243.473 215.606 243.491C215.589 243.508 215.568 243.522 215.544 243.528C215.105 243.639 214.654 243.699 214.2 243.708ZM213.444 242.658C213.391 242.655 213.337 242.665 213.288 242.688C213.258 242.688 213.222 242.736 213.216 242.826C213.204 242.907 213.212 242.99 213.24 243.066C213.269 243.143 213.316 243.211 213.378 243.264C213.654 243.498 214.32 243.528 215.178 243.354C214.656 243.014 214.074 242.778 213.462 242.658H213.444Z" fill="#FF5900"/>
<path d="M215.521 243.529H215.461C214.939 243.241 213.918 242.131 214.026 241.561C214.045 241.472 214.093 241.393 214.163 241.336C214.233 241.279 214.32 241.248 214.411 241.249C214.501 241.236 214.594 241.242 214.682 241.268C214.77 241.294 214.851 241.339 214.921 241.399C215.521 241.885 215.634 243.349 215.64 243.409C215.642 243.431 215.637 243.452 215.628 243.472C215.619 243.492 215.604 243.51 215.587 243.523C215.565 243.53 215.543 243.532 215.521 243.529ZM214.494 241.471H214.44C214.284 241.471 214.272 241.567 214.266 241.597C214.2 241.927 214.867 242.797 215.371 243.169C215.334 242.589 215.125 242.033 214.771 241.573C214.693 241.509 214.595 241.473 214.494 241.471Z" fill="#FF5900"/>
<path d="M207.384 99.3782L201.78 99.3062C199.896 99.3062 198.024 99.2462 196.17 99.2162C195.606 99.2162 195.054 99.1802 194.496 99.1562C194.532 99.1562 194.556 99.0902 194.586 99.0602C194.982 98.6402 195.378 98.2082 195.786 97.7942C195.99 97.5782 196.19 97.3682 196.386 97.1642C196.572 96.9602 196.812 96.7322 196.938 96.5642L197.448 95.9162C197.85 95.4034 198.081 94.7771 198.107 94.126C198.133 93.4749 197.953 92.8322 197.593 92.289C197.233 91.7458 196.711 91.3298 196.102 91.0999C195.492 90.87 194.825 90.8379 194.196 91.0082L193.086 91.3082C192.744 91.4102 192.402 91.5242 192.06 91.6382C191.388 91.8722 190.728 92.1302 190.074 92.4122C188.757 92.9941 187.483 93.6719 186.264 94.4402C185.002 95.247 183.808 96.1561 182.694 97.1582C181.516 98.2299 180.448 99.4179 179.508 100.704C179.271 101.025 179.07 101.371 178.908 101.736C178.351 103.013 178.324 104.459 178.832 105.757C179.341 107.054 180.344 108.096 181.62 108.654L182.166 108.894C183.399 109.425 184.676 109.846 185.982 110.154C187.122 110.448 188.202 110.64 189.264 110.82C190.326 111 191.364 111.144 192.396 111.27C193.428 111.396 194.448 111.492 195.468 111.576C197.502 111.756 199.518 111.846 201.528 111.906C203.538 111.966 205.506 111.966 207.594 111.87C209.223 111.801 210.759 111.098 211.877 109.912C212.995 108.727 213.606 107.151 213.579 105.522C213.552 103.892 212.891 102.338 211.735 101.189C210.579 100.04 209.02 99.3885 207.39 99.3722L207.384 99.3782Z" fill="#FFBF84"/>
<path d="M210.648 110.328C205.806 115.848 194.154 113.784 194.154 113.784L194.796 100.032C198.79 99.1531 202.863 98.6807 206.952 98.6221C213.792 98.6101 214.524 105.9 210.648 110.328Z" fill="#263238"/>
<path d="M197.724 106.099C197.436 108.319 197.124 111.307 196.938 115.327C194.412 128.107 193.47 137.161 195.702 143.767C197.466 145.945 220.452 145.525 224.586 145.105C226.986 139.165 227.238 122.113 227.52 107.779C227.555 105.803 226.882 103.881 225.621 102.36C224.361 100.838 222.597 99.8191 220.65 99.4866C215.477 98.5697 210.2 98.3919 204.978 98.9586C203.145 99.1671 201.434 99.9836 200.12 101.278C198.805 102.572 197.961 104.269 197.724 106.099Z" fill="#263238"/>
<path opacity="0.2" d="M220.026 114.822C220.104 119.19 223.272 126.168 226.836 129.708C227.052 126.018 227.19 122.016 227.298 117.978L220.026 114.822Z" fill="black"/>
<path d="M240.054 123.312L239.85 122.832C239.011 120.831 238.031 118.892 236.916 117.03C235.848 115.23 234.696 113.532 233.502 111.894C232.308 110.256 231.042 108.69 229.746 107.166C229.086 106.41 228.432 105.654 227.742 104.922L226.704 103.83L225.6 102.714C224.443 101.573 222.888 100.926 221.263 100.911C219.638 100.897 218.071 101.516 216.894 102.637C215.718 103.758 215.024 105.293 214.96 106.917C214.896 108.541 215.467 110.126 216.552 111.336L216.732 111.534L220.254 115.452C221.454 116.784 222.6 118.14 223.74 119.49C224.292 120.168 224.862 120.846 225.378 121.536C225.894 122.226 226.44 122.892 226.956 123.576C227.7 124.614 228.42 125.646 229.062 126.66C228.964 127.172 228.839 127.679 228.69 128.178C228.259 129.632 227.752 131.062 227.172 132.462C226.572 133.944 225.936 135.462 225.276 136.956C224.616 138.45 223.908 140.01 223.278 141.51L223.218 141.642C222.941 142.305 222.899 143.043 223.099 143.733C223.298 144.423 223.727 145.025 224.315 145.438C224.902 145.851 225.613 146.052 226.33 146.007C227.047 145.961 227.727 145.673 228.258 145.188C229.581 143.962 230.837 142.664 232.02 141.3C233.22 139.952 234.346 138.532 235.398 137.04C235.932 136.29 236.442 135.51 236.946 134.7C237.469 133.877 237.948 133.026 238.38 132.15C238.866 131.196 239.287 130.21 239.64 129.198C240.1 127.904 240.359 126.546 240.408 125.172C240.423 124.534 240.303 123.9 240.054 123.312Z" fill="#FFBF84"/>
<path d="M221.058 99.5647C229.152 100.951 234.426 111.907 234.426 111.907L224.67 122.401C224.67 122.401 219.048 116.677 215.67 111.373C212.028 105.601 215.262 98.5807 221.058 99.5647Z" fill="#263238"/>
<path d="M206.274 82.2904C204.918 80.0164 204.474 76.8904 206.958 73.7044C206.474 73.7651 205.983 73.684 205.544 73.471C205.106 73.258 204.738 72.9222 204.486 72.5044C207.206 70.2791 210.626 69.0888 214.14 69.1444C221.4 69.1444 221.94 71.9464 221.694 73.8604C226.662 74.1784 230.286 87.0964 217.692 89.3824C210.486 81.7924 206.274 82.2904 206.274 82.2904Z" fill="#263238"/>
<path d="M221.238 74.0942C221.238 74.0942 223.26 72.0302 220.746 69.5342C221.31 69.6887 221.824 69.9866 222.238 70.3988C222.652 70.8109 222.953 71.3234 223.11 71.8862C223.464 73.3382 222.486 74.5022 221.238 74.0942Z" fill="#263238"/>
<path d="M218.455 87.8047C218.263 91.7827 217.903 96.3067 218.569 99.4807C217.537 101.107 214.897 102.979 210.169 103.399C208.489 102.445 206.269 100.111 207.043 98.9107C209.053 97.6207 209.905 93.7147 209.329 90.7927L218.455 87.8047Z" fill="#FFBF84"/>
<path opacity="0.2" d="M216.15 88.5547L209.316 90.7927C209.549 92.0371 209.559 93.3128 209.346 94.5607C211.386 94.4947 214.212 92.9587 215.274 91.5187C215.62 91.1138 215.877 90.6407 216.028 90.13C216.179 89.6193 216.221 89.0826 216.15 88.5547Z" fill="black"/>
<path d="M220.446 81.5045C219.18 86.3825 218.688 89.3045 215.7 91.3505C211.206 94.4285 205.554 90.9785 205.332 85.8245C205.14 81.1805 207.24 73.9805 212.46 72.9545C213.61 72.724 214.799 72.7912 215.915 73.1497C217.031 73.5082 218.037 74.1461 218.837 75.0028C219.638 75.8595 220.205 76.9066 220.487 78.0445C220.769 79.1825 220.755 80.3735 220.446 81.5045Z" fill="#FFBF84"/>
<path d="M219.438 74.5205C217.296 76.0445 214.638 82.5005 220.038 85.0925C224.886 80.8325 223.632 74.5205 219.438 74.5205Z" fill="#263238"/>
<path d="M220.674 75.2945C221.592 71.0465 210.87 68.8505 207.474 73.8125C206.322 76.8005 220.026 79.4405 220.674 75.2945Z" fill="#263238"/>
<path d="M212.676 86.6821C211.562 86.1784 210.367 85.8757 209.148 85.7881C209.131 85.7881 209.114 85.7915 209.098 85.7982C209.082 85.8049 209.068 85.8147 209.056 85.8271C209.045 85.8394 209.035 85.854 209.029 85.87C209.023 85.886 209.021 85.903 209.022 85.9201C209.028 85.9589 209.048 85.9942 209.077 86.0204C209.107 86.0465 209.144 86.062 209.184 86.0641C210.353 86.1486 211.498 86.4369 212.568 86.9161C212.601 86.9308 212.639 86.9322 212.674 86.92C212.708 86.9077 212.737 86.8827 212.754 86.8501C212.76 86.834 212.763 86.8167 212.763 86.7993C212.763 86.7819 212.759 86.7648 212.751 86.749C212.744 86.7332 212.734 86.7191 212.721 86.7076C212.707 86.6961 212.692 86.6874 212.676 86.6821Z" fill="#263238"/>
<path d="M221.616 86.8385C220.747 87.7614 219.548 88.3028 218.28 88.3445C216.6 88.3805 216.174 86.7785 216.984 85.4105C217.716 84.2105 219.468 82.6745 220.992 83.2865C222.516 83.8985 222.672 85.6925 221.616 86.8385Z" fill="#FFBF84"/>
<path d="M212.688 81.42C212.61 81.822 212.334 82.11 212.088 82.056C211.842 82.002 211.68 81.636 211.758 81.234C211.836 80.832 212.112 80.55 212.358 80.634C212.604 80.718 212.766 81 212.688 81.42Z" fill="#263238"/>
<path d="M208.146 80.5385C208.068 80.9405 207.792 81.2225 207.546 81.1745C207.3 81.1265 207.132 80.7545 207.21 80.3525C207.288 79.9505 207.564 79.6625 207.81 79.7165C208.056 79.7705 208.2 80.1365 208.146 80.5385Z" fill="#263238"/>
<path d="M209.55 81C208.83 82.1356 207.958 83.1672 206.958 84.066C207.558 84.864 208.884 84.708 208.884 84.708L209.55 81Z" fill="#ED847E"/>
<path d="M212.034 79.0861C212.077 79.0767 212.121 79.0784 212.163 79.091C212.205 79.1036 212.243 79.1266 212.274 79.158C212.467 79.3909 212.712 79.5748 212.989 79.6947C213.266 79.8147 213.568 79.8672 213.87 79.8481C213.933 79.8394 213.998 79.8559 214.049 79.894C214.101 79.9321 214.136 79.9888 214.146 80.0521C214.151 80.0833 214.15 80.1152 214.142 80.1459C214.134 80.1766 214.121 80.2054 214.102 80.2307C214.083 80.2559 214.059 80.277 214.031 80.2927C214.004 80.3084 213.973 80.3184 213.942 80.322C213.561 80.3527 213.178 80.2919 212.825 80.1448C212.473 79.9976 212.16 79.7684 211.914 79.4761C211.891 79.4542 211.874 79.4281 211.861 79.3993C211.849 79.3704 211.843 79.3394 211.843 79.308C211.843 79.2767 211.849 79.2457 211.861 79.2168C211.874 79.188 211.891 79.1619 211.914 79.14C211.95 79.1136 211.99 79.0951 212.034 79.0861Z" fill="#263238"/>
<path d="M206.742 77.7547C206.692 77.7444 206.647 77.7167 206.616 77.6767C206.595 77.6517 206.581 77.6229 206.572 77.592C206.563 77.5611 206.56 77.5287 206.564 77.4968C206.568 77.4649 206.578 77.4341 206.595 77.4063C206.611 77.3784 206.632 77.3541 206.658 77.3347C206.952 77.0932 207.3 76.9253 207.673 76.845C208.045 76.7646 208.432 76.7741 208.8 76.8727C208.86 76.8933 208.911 76.9368 208.94 76.994C208.969 77.0511 208.975 77.1174 208.956 77.1787C208.932 77.2366 208.887 77.2838 208.831 77.3114C208.775 77.339 208.71 77.3452 208.65 77.3287C208.356 77.2539 208.05 77.2497 207.754 77.3165C207.459 77.3832 207.184 77.519 206.952 77.7127C206.924 77.7379 206.889 77.7551 206.852 77.7625C206.815 77.7699 206.777 77.7672 206.742 77.7547Z" fill="#263238"/>
<path d="M226.11 141.337L220.956 141.301L223.62 147.217C223.62 147.217 228.018 146.275 227.778 143.887L226.11 141.337Z" fill="#FFBF84"/>
<path d="M218.334 145.363L219.18 147.031C219.408 147.475 219.793 147.818 220.26 147.994C220.727 148.169 221.243 148.164 221.706 147.979L223.62 147.217L220.956 141.301L218.91 142.861C218.536 143.144 218.272 143.55 218.167 144.007C218.062 144.465 218.121 144.945 218.334 145.363Z" fill="#FFBF84"/>
<path d="M186.876 136.981C186.253 136.974 185.646 136.786 185.129 136.44C184.612 136.093 184.207 135.603 183.964 135.03C183.721 134.456 183.651 133.824 183.762 133.212C183.874 132.599 184.161 132.032 184.59 131.581C186.882 129.217 188.952 127.381 190.776 125.779C195.18 121.897 196.698 120.379 196.554 117.469C196.338 115.673 195.957 113.902 195.414 112.177C194.1 107.347 192.612 101.881 195.162 97.4947C196.53 95.1367 198.852 93.5227 202.068 92.6947C202.881 92.5017 203.737 92.6353 204.453 93.0668C205.169 93.4982 205.687 94.1931 205.896 95.0023C206.105 95.8114 205.988 96.6702 205.571 97.3942C205.153 98.1183 204.469 98.6498 203.664 98.8747C201.402 99.4747 200.856 100.393 200.664 100.705C199.464 102.775 200.622 107.059 201.558 110.497C202.236 112.665 202.69 114.896 202.914 117.157C203.214 123.307 199.584 126.511 194.982 130.567C193.248 132.103 191.274 133.843 189.15 136.027C188.854 136.329 188.5 136.57 188.109 136.734C187.719 136.897 187.299 136.981 186.876 136.981Z" fill="#017BE0"/>
<path d="M193.878 91.1403L198.87 89.8623L197.706 96.2463C197.706 96.2463 193.212 96.3843 192.876 94.0143L193.878 91.1403Z" fill="#FFBF84"/>
<path d="M202.374 93.2463L201.99 94.9143C201.872 95.4238 201.568 95.8707 201.137 96.1672C200.706 96.4637 200.18 96.5882 199.662 96.5163L197.706 96.2463L198.87 89.8623L201.162 90.8523C201.612 91.0463 201.98 91.3922 202.202 91.8297C202.423 92.2672 202.484 92.7685 202.374 93.2463Z" fill="#FFBF84"/>
<path d="M185.091 126.482L184.955 126.347C184.348 125.74 183.365 125.74 182.758 126.347L165.065 144.046C164.458 144.653 164.458 145.637 165.065 146.244L165.201 146.38C165.808 146.986 166.792 146.986 167.399 146.379L185.092 128.68C185.698 128.073 185.698 127.089 185.091 126.482Z" fill="#263238"/>
<path d="M194.313 135.692L194.177 135.556C193.57 134.949 192.586 134.949 191.979 135.556L174.283 153.252C173.676 153.859 173.676 154.843 174.283 155.45L174.419 155.585C175.026 156.192 176.01 156.192 176.617 155.585L194.313 137.889C194.92 137.282 194.92 136.299 194.313 135.692Z" fill="#263238"/>
<path d="M170.647 133.07L183.117 120.601C183.516 120.202 183.99 119.885 184.512 119.669C185.034 119.452 185.594 119.341 186.159 119.341C186.724 119.341 187.283 119.452 187.805 119.669C188.327 119.885 188.801 120.202 189.201 120.601L200.1 131.501C200.499 131.9 200.816 132.374 201.032 132.896C201.249 133.418 201.36 133.978 201.36 134.543C201.36 135.107 201.249 135.667 201.032 136.189C200.816 136.711 200.499 137.185 200.1 137.584L187.631 150.054L170.647 133.07Z" fill="#017BE0"/>
<path opacity="0.7" d="M170.647 133.07L183.117 120.601C183.516 120.202 183.99 119.885 184.512 119.669C185.034 119.452 185.594 119.341 186.159 119.341C186.724 119.341 187.283 119.452 187.805 119.669C188.327 119.885 188.801 120.202 189.201 120.601L200.1 131.501C200.499 131.9 200.816 132.374 201.032 132.896C201.249 133.418 201.36 133.978 201.36 134.543C201.36 135.107 201.249 135.667 201.032 136.189C200.816 136.711 200.499 137.185 200.1 137.584L187.631 150.054L170.647 133.07Z" fill="white"/>
<path opacity="0.2" d="M174.948 128.736L170.628 133.05L187.614 150.036L191.928 145.716C191.756 145.214 191.471 144.758 191.094 144.384L176.28 129.6C175.909 129.213 175.453 128.917 174.948 128.736Z" fill="#017BE0"/>
<path d="M169.9 130.875L169.59 131.185C168.274 132.502 168.274 134.637 169.59 135.954L184.715 151.079C186.032 152.396 188.167 152.396 189.484 151.079L189.794 150.769C191.111 149.452 191.111 147.317 189.794 146L174.669 130.875C173.352 129.558 171.217 129.558 169.9 130.875Z" fill="#017BE0"/>
</svg>
